SplineFontDB: 3.0
FontName: Coda-Heavy
FullName: Coda Heavy
FamilyName: Coda
Weight: Heavy
Copyright: Copyright (c) 2009/11 by vernon adams. All rights reserved. with\nReserved Font Names "Coda" and "Coda Heavy". This\nFont Software is licensed under the SIL Open Font License, Version\n1.1. This license is available with a FAQ at:\nhttp://scripts.sil.org/OFL
Version: 002
ItalicAngle: 0
UnderlinePosition: -103
UnderlineWidth: 102
Ascent: 1638
Descent: 410
sfntRevision: 0x00010000
LayerCount: 2
Layer: 0 0 "Back"  1
Layer: 1 0 "Fore"  0
NeedsXUIDChange: 1
XUID: [1021 14 500265001 16340292]
FSType: 256
OS2Version: 3
OS2_WeightWidthSlopeOnly: 0
OS2_UseTypoMetrics: 0
CreationTime: 1313076410
ModificationTime: 1313147693
PfmFamily: 17
TTFWeight: 900
TTFWidth: 1
LineGap: 0
VLineGap: 0
Panose: 2 0 5 5 2 0 0 2 0 4
OS2TypoAscent: 1710
OS2TypoAOffset: 0
OS2TypoDescent: -408
OS2TypoDOffset: 0
OS2TypoLinegap: 0
OS2WinAscent: 1710
OS2WinAOffset: 0
OS2WinDescent: 408
OS2WinDOffset: 0
HheadAscent: 1710
HheadAOffset: 0
HheadDescent: -408
HheadDOffset: 0
OS2SubXSize: 1331
OS2SubYSize: 1228
OS2SubXOff: 0
OS2SubYOff: 153
OS2SupXSize: 1331
OS2SupYSize: 1228
OS2SupXOff: 0
OS2SupYOff: 716
OS2StrikeYSize: 102
OS2StrikeYPos: 780
OS2Vendor: 'newt'
OS2CodePages: 20000093.00000000
OS2UnicodeRanges: 00000007.00000000.00000000.00000000
Lookup: 258 0 0 "'kern' Horizontal Kerning lookup 0"  {"'kern' Horizontal Kerning lookup 0 subtable"  } ['kern' ('DFLT' <'dflt' > ) ]
MarkAttachClasses: 1
DEI: 91125
KernClass2: 2+ 3 "'kern' Horizontal Kerning lookup 0 subtable" 
 1 A
 1 T
 1 T
 11 a c d e o q
 0 {} -107 {} -17 {} 0 {} 0 {} -102 {}

StartChar: exclam
Encoding: 33 33 2
Width: 722
Flags: HMW
HStem: -39 420<324 426> 1611 20G<310 437.5>
VStem: 122 511<1336 1483.5 1332 1486.5>
LayerCount: 2
Fore
SplineSet
314 607 m 0
 250 880 122 1259 122 1413 c 0
 122 1560 247 1631 373 1631 c 0
 502 1631 633 1556 633 1411 c 0
 633 1253 498 874 435 607 c 0
 424 562 400 539 375 539 c 0
 350 539 325 561 314 607 c 0
171 171 m 0
 171 311 273 381 375 381 c 0
 477 381 579 311 579 171 c 0
 579 31 477 -39 375 -39 c 0
 273 -39 171 31 171 171 c 0
EndSplineSet
Validated: 1
EndChar

StartChar: quotedbl
Encoding: 34 34 3
Width: 1213
Flags: HMW
HStem: 1609 20G<286 381.5 783 878.5>
VStem: 147 878<1401.5 1510 1398 1513>
LayerCount: 2
Fore
SplineSet
280 896 m 1
 235 1090 147 1349 147 1454 c 0
 147 1572 239 1629 333 1629 c 0
 430 1629 528 1568 528 1452 c 0
 528 1344 435 1086 390 896 c 0
 381 857 357 837 335 837 c 0
 313 837 291 856 280 896 c 1
777 896 m 1
 732 1090 644 1349 644 1454 c 0
 644 1572 736 1629 830 1629 c 0
 927 1629 1025 1568 1025 1452 c 0
 1025 1344 932 1086 887 896 c 0
 878 857 854 837 832 837 c 0
 810 837 788 856 777 896 c 1
EndSplineSet
Validated: 1
EndChar

StartChar: numbersign
Encoding: 35 35 4
Width: 1718
Flags: HMW
HStem: 0 21G<143 645 143 143 841 1342 841 841> 429 192<96 204 70 234 734 902> 993 207<166 285 137 319 819 983> 1575 20G<373 872 872 872 1071 1569 1569 1569>
VStem: 70 1594<429 1200>
LayerCount: 2
Fore
SplineSet
1567 430 m 1
 1402 430 l 1
 1342 0 l 1
 841 0 l 1
 902 429 l 1
 705 429 l 1
 645 0 l 1
 143 0 l 1
 204 429 l 1
 70 429 l 1
 96 621 l 1
 234 621 l 1
 285 993 l 1
 137 993 l 1
 166 1200 l 1
 319 1200 l 1
 373 1595 l 1
 872 1595 l 1
 819 1200 l 1
 1016 1200 l 1
 1071 1595 l 1
 1569 1595 l 1
 1516 1200 l 1
 1664 1200 l 1
 1634 994 l 1
 1483 994 l 1
 1431 621 l 1
 1594 621 l 1
 1567 430 l 1
734 621 m 1
 931 621 l 1
 983 993 l 1
 786 993 l 1
 734 621 l 1
EndSplineSet
Validated: 1
EndChar

StartChar: dollar
Encoding: 36 36 5
Width: 1434
Flags: HMW
HStem: 23 260<600 764> 1283 261<600 685 600 685 685 847 685 764> 1710 20G<685 764 764 764>
VStem: 685 79<-168 22 22 22 283 572 1012 1283 1545 1730>
LayerCount: 2
Fore
SplineSet
685 -168 m 1
 685 22 l 1
 533 23 406 34 301 71 c 0
 149 125 89 239 101 482 c 1
 600 450 l 1
 600 283 l 1
 685 283 l 1
 685 586 l 1
 392 639 70 711 70 1080 c 0
 70 1462 338 1538 685 1544 c 1
 685 1730 l 1
 764 1730 l 1
 764 1545 l 1
 914 1544 1040 1533 1145 1500 c 1
 1344 1435 1357 1282 1346 1092 c 1
 847 1122 l 1
 847 1283 l 1
 764 1283 l 1
 764 997 l 1
 1048 942 1378 873 1378 510 c 0
 1378 122 1147 30 764 23 c 1
 764 -168 l 1
 685 -168 l 1
847 556 m 1
 764 572 l 1
 764 283 l 1
 847 283 l 1
 847 556 l 1
600 1031 m 1
 627 1025 655 1018 685 1012 c 1
 685 1283 l 1
 600 1283 l 1
 600 1031 l 1
EndSplineSet
Validated: 33
EndChar

StartChar: percent
Encoding: 37 37 6
Width: 2792
Flags: HMW
HStem: 129 218<2172 2262 2172 2325.5> 618 215<532 623 532 686.5> 892 217<2172 2262 2172 2172> 1378 217<532 623 532 532> 1612 20G<1395 1779 1779 1779>
VStem: 125 2540<297.5 1286 297.5 1431.5>
LayerCount: 2
Fore
SplineSet
623 1378 m 1
 532 1378 l 1
 532 833 l 1
 623 833 l 1
 623 1378 l 1
575 618 m 0
 349 618 125 623 125 927 c 2
 125 1286 l 2
 125 1577 352 1595 574 1595 c 0
 795 1595 1025 1578 1025 1288 c 2
 1025 929 l 2
 1025 630 798 618 575 618 c 0
2262 892 m 1
 2172 892 l 1
 2172 347 l 1
 2262 347 l 1
 2262 892 l 1
2215 129 m 0
 1990 129 1765 146 1765 441 c 2
 1765 798 l 2
 1765 1091 1990 1109 2214 1109 c 0
 2437 1109 2665 1092 2665 799 c 2
 2665 442 l 2
 2665 153 2436 129 2215 129 c 0
1779 1632 m 1
 1403 -39 l 1
 1015 -39 l 1
 1395 1632 l 1
 1779 1632 l 1
EndSplineSet
Validated: 1
EndChar

StartChar: ampersand
Encoding: 38 38 7
Width: 1653
Flags: HMW
HStem: -40 264<687 896 687 1039> 736 193<687 896 687 896 1442 1593> 1392 240<687 893 687 687>
VStem: 84 1509<736 1396>
LayerCount: 2
Fore
SplineSet
896 224 m 1
 896 736 l 1
 687 736 l 1
 687 224 l 1
 896 224 l 1
359 861 m 1
 247 873 l 2
 180 880 84 958 84 1198 c 0
 84 1594 453 1632 806 1632 c 0
 1220 1632 1442 1522 1442 1238 c 0
 1442 1221 1441 1203 1438 1184 c 1
 893 1184 l 1
 893 1392 l 1
 687 1392 l 1
 687 929 l 1
 896 929 l 1
 896 1068 l 1
 1442 1068 l 1
 1442 929 l 1
 1593 929 l 1
 1593 736 l 1
 1442 736 l 1
 1442 513 l 2
 1442 75 1312 -40 766 -40 c 0
 361 -40 85 16 85 456 c 0
 85 569 126 795 247 809 c 2
 359 822 l 1
 359 861 l 1
EndSplineSet
Validated: 1
EndChar

StartChar: quoteright
Encoding: 8217 8217 8
Width: 706
Flags: HMW
HStem: 987 112<177 331.5> 1610 20G<307 430>
VStem: 154 414<1365.5 1454.5 1298 1496.5>
LayerCount: 2
Fore
SplineSet
154 1430 m 0
 154 1563 256 1630 358 1630 c 0
 502 1630 568 1519 568 1390 c 0
 568 1206 442 987 221 987 c 0
 207 987 192 988 177 990 c 1
 177 1099 l 1
 257 1100 327 1144 333 1221 c 1
 240 1231 154 1301 154 1430 c 0
EndSplineSet
Validated: 1
EndChar

StartChar: parenleft
Encoding: 40 40 9
Width: 860
Flags: HMW
HStem: -169 279<465.5 771 706 771 706 771> 1562 279<678 706 706 771>
VStem: 51 720<-169 1077.5>
LayerCount: 2
Fore
SplineSet
51 827 m 0
 51 1328 253 1841 678 1841 c 2
 771 1841 l 1
 771 1562 l 1
 706 1562 l 2
 545 1562 453 1188 453 827 c 0
 453 466 545 110 706 110 c 2
 771 110 l 1
 771 -169 l 1
 678 -169 l 2
 253 -169 51 326 51 827 c 0
EndSplineSet
Validated: 1
EndChar

StartChar: parenright
Encoding: 41 41 10
Width: 861
Flags: HMW
HStem: -169 279<90 155 155 183 90 155> 1562 279<90 155 90 183>
VStem: 90 720<-169 1077.5 110 1077.5 576.5 1841>
LayerCount: 2
Fore
SplineSet
810 827 m 0
 810 326 608 -169 183 -169 c 2
 90 -169 l 1
 90 110 l 1
 155 110 l 2
 316 110 408 466 408 827 c 0
 408 1188 316 1562 155 1562 c 2
 90 1562 l 1
 90 1841 l 1
 183 1841 l 2
 608 1841 810 1328 810 827 c 0
EndSplineSet
Validated: 1
EndChar

StartChar: asterisk
Encoding: 42 42 11
Width: 1321
Flags: HMW
HStem: 817 295<157.5 232.5 1093.5 1169.5>
VStem: 73 1181<925.5 999.5>
LayerCount: 2
Fore
SplineSet
775 489 m 0
 739 549 701 703 663 840 c 1
 596 599 572 430 450 430 c 0
 368 430 282 502 282 581 c 0
 282 658 408 765 551 899 c 1
 415 861 267 817 198 817 c 0
 113 817 73 889 73 962 c 0
 73 1037 116 1112 199 1112 c 0
 270 1112 417 1065 551 1027 c 1
 403 1170 282 1275 282 1351 c 0
 282 1431 369 1497 450 1497 c 0
 490 1497 529 1480 553 1440 c 0
 591 1376 627 1219 663 1080 c 1
 700 1219 736 1376 774 1440 c 0
 798 1480 836 1497 877 1497 c 0
 957 1497 1045 1430 1045 1351 c 0
 1045 1275 921 1169 775 1027 c 1
 909 1065 1057 1112 1128 1112 c 0
 1211 1112 1254 1037 1254 962 c 0
 1254 889 1214 817 1128 817 c 0
 1059 817 911 862 775 899 c 1
 917 765 1044 657 1044 581 c 0
 1044 500 957 430 877 430 c 0
 838 430 800 447 775 489 c 0
EndSplineSet
Validated: 1
EndChar

StartChar: plus
Encoding: 43 43 12
Width: 1328
Flags: HMW
HStem: 478 333<104 469 104 469 861 1225>
VStem: 104 1121<478 811 478 811>
LayerCount: 2
Fore
SplineSet
469 811 m 1
 469 1192 l 1
 861 1192 l 1
 861 811 l 1
 1225 811 l 1
 1225 478 l 1
 861 478 l 1
 861 100 l 1
 469 100 l 1
 469 478 l 1
 104 478 l 1
 104 811 l 1
 469 811 l 1
EndSplineSet
Validated: 1
EndChar

StartChar: comma
Encoding: 44 44 13
Width: 711
Flags: HMW
HStem: -234 112<164 318.5> 0 21G
VStem: 141 414<144.5 233.5 77 275.5>
LayerCount: 2
Fore
SplineSet
141 209 m 0
 141 342 243 409 345 409 c 0
 489 409 555 298 555 169 c 0
 555 -15 429 -234 208 -234 c 0
 194 -234 179 -233 164 -231 c 1
 164 -122 l 1
 244 -121 314 -77 320 0 c 1
 227 10 141 80 141 209 c 0
EndSplineSet
Validated: 1
EndChar

StartChar: hyphen
Encoding: 45 45 14
Width: 1328
Flags: HMW
HStem: 478 333<164 1165 164 1165>
VStem: 164 1001<478 811 478 811>
LayerCount: 2
Fore
SplineSet
1165 811 m 1
 1165 478 l 1
 164 478 l 1
 164 811 l 1
 1165 811 l 1
EndSplineSet
Validated: 1
EndChar

StartChar: period
Encoding: 46 46 15
Width: 670
Flags: HMW
HStem: -39 420<289 391>
VStem: 136 408<101 241>
LayerCount: 2
Fore
SplineSet
136 171 m 0
 136 311 238 381 340 381 c 0
 442 381 544 311 544 171 c 0
 544 31 442 -39 340 -39 c 0
 238 -39 136 31 136 171 c 0
EndSplineSet
Validated: 1
EndChar

StartChar: slash
Encoding: 47 47 16
Width: 1056
Flags: HMW
HStem: 0 21G<136 136 136 571> 1575 20G<488 922 922 922>
VStem: 136 786
LayerCount: 2
Fore
SplineSet
136 0 m 1
 488 1595 l 1
 922 1595 l 1
 571 0 l 1
 136 0 l 1
EndSplineSet
Validated: 1
EndChar

StartChar: zero
Encoding: 48 48 17
Width: 1469
Flags: HMW
HStem: -39 272<653 819 653 895> 1359 274<653 819 653 653>
VStem: 89 1294<352 1242 163.5 1426>
LayerCount: 2
Fore
SplineSet
653 233 m 1
 819 233 l 1
 819 1359 l 1
 653 1359 l 1
 653 233 l 1
739 -39 m 0
 422 -39 89 -14 89 352 c 2
 89 1242 l 2
 89 1610 429 1633 738 1633 c 0
 1056 1633 1383 1603 1383 1242 c 2
 1383 352 l 2
 1383 -25 1051 -39 739 -39 c 0
EndSplineSet
Validated: 1
EndChar

StartChar: one
Encoding: 49 49 18
Width: 961
Flags: HMW
HStem: 0 21G<262 866 262 262> 1291 220<41 109.5 41 262 41 109.5> 1291 304<41 866>
VStem: 41 825<1291 1511 1511 1511>
LayerCount: 2
Fore
SplineSet
41 1511 m 1xd0
 178 1511 300 1542 388 1595 c 1
 866 1595 l 1
 866 0 l 1
 262 0 l 1
 262 1291 l 1
 41 1291 l 1xb0
 41 1511 l 1xd0
EndSplineSet
Validated: 1
EndChar

StartChar: two
Encoding: 50 50 19
Width: 1403
Flags: HMW
HStem: 1 300<630 1288 630 1288> 1358 275<630 782 630 630>
VStem: 76 1273<1115 1312.5 941.5 1330>
LayerCount: 2
Fore
SplineSet
78 1064 m 1
 77 1087 76 1106 76 1124 c 0
 76 1536 347 1633 718 1633 c 0
 1139 1633 1349 1500 1349 1125 c 0
 1349 776 1076 650 858 545 c 0
 752 494 630 423 630 301 c 1
 1277 301 l 5
 1277 1 l 5
 78 1 l 1
 78 201 l 2
 78 599 289 758 573 890 c 0
 667 936 782 989 782 1086 c 2
 782 1358 l 1
 630 1358 l 1
 630 1064 l 1
 78 1064 l 1
EndSplineSet
Validated: 1
EndChar

StartChar: three
Encoding: 51 51 20
Width: 1436
Flags: HMW
HStem: -39 274<627 799 627 913.5> 707 224<540 799 540 799> 1361 271<627 799 627 627>
VStem: 540 87
LayerCount: 2
Fore
SplineSet
714 1632 m 0
 1147 1632 1364 1506 1364 1113 c 0
 1364 965 1284 869 1163 820 c 1
 1299 770 1366 661 1366 522 c 0
 1366 79 1111 -39 716 -39 c 0
 270 -39 71 142 71 517 c 0
 71 548 72 580 75 613 c 1
 627 613 l 1
 627 235 l 1
 799 235 l 1
 799 707 l 1
 540 707 l 1
 540 931 l 1
 799 931 l 1
 799 1361 l 1
 627 1361 l 1
 627 1024 l 1
 75 1024 l 1
 73 1053 72 1081 72 1108 c 0
 72 1503 293 1632 714 1632 c 0
EndSplineSet
Validated: 1
EndChar

StartChar: four
Encoding: 52 52 21
Width: 1459
Flags: HMW
HStem: 0 21G<865 1377 865 865> 240 363<649 865 649 865> 1575 20G<327 900 900 900>
VStem: 73 1304<240 657 657 657>
LayerCount: 2
Fore
SplineSet
1377 0 m 1
 865 0 l 1
 865 240 l 1
 73 240 l 1
 73 657 l 1
 327 1595 l 1
 900 1595 l 1
 649 657 l 1
 649 603 l 1
 865 603 l 1
 865 938 l 1
 1377 938 l 1
 1377 0 l 1
EndSplineSet
Validated: 1
EndChar

StartChar: five
Encoding: 53 53 22
Width: 1429
Flags: HMW
HStem: -39 275<616 797 616 950.5> 838 267<616 1118 616 1118> 1299 297<638 1229 638 638>
VStem: 66 1298<449 474>
LayerCount: 2
Fore
SplineSet
955 1105 m 0
 1281 1105 1364 881 1364 553 c 0
 1364 87 1187 -39 714 -39 c 0
 369 -39 113 30 75 331 c 0
 69 376 66 424 66 474 c 1
 616 474 l 1
 616 236 l 1
 797 236 l 1
 797 838 l 1
 616 838 l 1
 616 655 l 1
 83 655 l 1
 136 1596 l 1
 1229 1596 l 1
 1229 1299 l 1
 638 1299 l 1
 604 998 l 1
 672 1077 796 1105 955 1105 c 0
EndSplineSet
Validated: 1
EndChar

StartChar: six
Encoding: 54 54 23
Width: 1448
Flags: HMW
HStem: -39 275<636 718> 798 270<637 761 761 816 636 761> 1369 263<637 800 637 637>
VStem: 85 1297<476 732 292.5 1056 292.5 1276>
LayerCount: 2
Fore
SplineSet
636 236 m 1
 816 236 l 1
 816 798 l 1
 636 798 l 1
 636 236 l 1
718 -39 m 1
 312 -39 85 93 85 476 c 2
 85 1056 l 2
 85 1496 312 1632 717 1632 c 0
 966 1632 1329 1608 1329 1237 c 0
 1329 1208 1331 1183 1331 1158 c 1
 800 1158 l 1
 800 1369 l 1
 637 1369 l 1
 637 1068 l 1
 761 1068 l 2
 1223 1068 1382 941 1382 523 c 0
 1382 62 1130 -36 718 -39 c 1
EndSplineSet
Validated: 1
EndChar

StartChar: seven
Encoding: 55 55 24
Width: 991
Flags: HMW
HStem: 0 21G<112 716 112 112> 1354 241<40 334 40 942>
VStem: 40 902<1354 1595 1351 1595>
LayerCount: 2
Fore
SplineSet
942 1595 m 1
 942 1351 l 1
 716 0 l 1
 112 0 l 1
 334 1354 l 1
 40 1354 l 1
 40 1595 l 1
 942 1595 l 1
EndSplineSet
Validated: 1
EndChar

StartChar: eight
Encoding: 56 56 25
Width: 1427
Flags: HMW
HStem: -40 275<628 794 628 910.5> 720 240<640 794 640 794 628 794> 1355 276<640 640 640 794>
VStem: 64 1304<272.5 539>
LayerCount: 2
Fore
SplineSet
119 1181 m 0
 119 1529 366 1631 719 1631 c 0
 1071 1631 1310 1528 1310 1180 c 0
 1310 1022 1265 898 1149 864 c 1
 1305 830 1368 671 1368 470 c 0
 1368 34 1100 -40 721 -40 c 0
 287 -40 64 75 64 470 c 0
 64 608 88 818 251 864 c 1
 149 900 119 1035 119 1181 c 0
640 1355 m 1
 640 960 l 1
 794 960 l 1
 794 1355 l 1
 640 1355 l 1
628 235 m 1
 794 235 l 1
 794 720 l 1
 628 720 l 1
 628 235 l 1
EndSplineSet
Validated: 1
EndChar

StartChar: nine
Encoding: 57 57 26
Width: 1445
Flags: HMW
HStem: -40 265<645 803 645 932> 508 271<377 799 628 799 628 803> 1358 271<628 799 628 628>
VStem: 68 1297<879.5 1116 302 1311>
LayerCount: 2
Fore
SplineSet
799 1358 m 1
 628 1358 l 1
 628 779 l 1
 799 779 l 1
 799 1358 l 1
68 1071 m 0
 68 1551 325 1629 722 1629 c 0
 1130 1629 1365 1508 1365 1116 c 2
 1365 520 l 2
 1365 84 1131 -40 733 -40 c 0
 490 -40 124 0 115 328 c 0
 114 362 114 394 114 424 c 1
 645 424 l 1
 645 225 l 1
 803 225 l 1
 803 508 l 1
 576 508 l 2
 178 508 68 688 68 1071 c 0
EndSplineSet
Validated: 1
EndChar

StartChar: colon
Encoding: 58 58 27
Width: 691
Flags: HMW
HStem: 113 420<294 396> 113 1230<294 396> 923 420<294 396>
VStem: 141 408<253 393 1063 1203>
LayerCount: 2
Fore
SplineSet
141 323 m 0xb0
 141 463 243 533 345 533 c 0
 447 533 549 463 549 323 c 0
 549 183 447 113 345 113 c 0
 243 113 141 183 141 323 c 0xb0
141 1133 m 0
 141 1273 243 1343 345 1343 c 0
 447 1343 549 1273 549 1133 c 0
 549 993 447 923 345 923 c 0
 243 923 141 993 141 1133 c 0
EndSplineSet
Validated: 1
EndChar

StartChar: semicolon
Encoding: 59 59 28
Width: 710
Flags: HMW
HStem: -120 112<164 318.5> 923 420<294 396>
VStem: 141 414<258.5 347.5 191 389.5>
LayerCount: 2
Fore
SplineSet
141 323 m 0
 141 456 243 523 345 523 c 0
 489 523 555 412 555 283 c 0
 555 99 429 -120 208 -120 c 0
 194 -120 179 -119 164 -117 c 1
 164 -8 l 1
 244 -7 314 37 320 114 c 1
 227 124 141 194 141 323 c 0
141 1133 m 0
 141 1273 243 1343 345 1343 c 0
 447 1343 549 1273 549 1133 c 0
 549 993 447 923 345 923 c 0
 243 923 141 993 141 1133 c 0
EndSplineSet
Validated: 1
EndChar

StartChar: less
Encoding: 60 60 29
Width: 1036
Flags: HMW
HStem: 0 21G<951 951> 1577 20G<951 951>
VStem: 75 876<489 504 1092 1098 1098 1098>
LayerCount: 2
Fore
SplineSet
75 1098 m 1
 951 1597 l 1
 951 1092 l 1
 350 797 l 1
 951 504 l 1
 951 0 l 1
 75 489 l 1
 75 1098 l 1
EndSplineSet
Validated: 1
EndChar

StartChar: equal
Encoding: 61 61 30
Width: 1008
Flags: HMW
HStem: 0 336<89 923 89 923> 561 336<89 923 89 923>
VStem: 89 834<0 336 0 336 561 897 0 897>
LayerCount: 2
Fore
SplineSet
923 336 m 1
 923 0 l 1
 89 0 l 1
 89 336 l 1
 923 336 l 1
923 897 m 1
 923 561 l 1
 89 561 l 1
 89 897 l 1
 923 897 l 1
EndSplineSet
Validated: 1
EndChar

StartChar: greater
Encoding: 62 62 31
Width: 1035
Flags: HMW
HStem: 0 21G<86 86> 1577 20G<86 86>
VStem: 86 877<489 489 489 504 504 504 1092 1098 489 1597>
LayerCount: 2
Fore
SplineSet
963 489 m 1
 86 0 l 1
 86 504 l 1
 687 797 l 1
 86 1092 l 1
 86 1597 l 1
 963 1098 l 1
 963 489 l 1
EndSplineSet
Validated: 1
EndChar

StartChar: question
Encoding: 63 63 32
Width: 906
Flags: HMW
HStem: -39 420<306 408> 1264 368<275 607.5> 1612 20G<392 607.5>
VStem: 69 804<1161 1562>
LayerCount: 2
Fore
SplineSet
417 567 m 4x30
 412 524 382 510 355 510 c 4
 314 510 294 536 294 582 c 4
 294 814 412 979 439 1123 c 4
 440 1132 441 1141 441 1150 c 4
 441 1212 402 1264 299 1264 c 4
 251 1264 188 1250 105 1215 c 5x50
 69 1562 l 5
 222 1611 344 1632 440 1632 c 4
 775 1632 873 1473 873 1313 c 4
 873 1009 457 912 417 567 c 4x30
153 171 m 4xb0
 153 311 255 381 357 381 c 4
 459 381 561 311 561 171 c 4
 561 31 459 -39 357 -39 c 4
 255 -39 153 31 153 171 c 4xb0
EndSplineSet
Validated: 1
EndChar

StartChar: at
Encoding: 64 64 33
Width: 2198
Flags: HMW
HStem: -393 335<905.5 1272 905.5 1343> 88 242<1607 1777 1607 1799.5> 113 223<841.5 1174> 641 195<829 1081 829 1174> 1022 226<1116 1175 1116 1116> 1424 317<858.5 1369.5>
VStem: 74 2059<643.5 1091>
LayerCount: 2
Fore
SplineSet
1553 88 m 1xde
 1388 91 1263 139 1202 239 c 1
 1149 173 1069 113 950 113 c 0xbe
 733 113 620 199 613 405 c 0
 612 435 612 464 612 493 c 0
 612 732 708 836 950 836 c 0
 1049 836 1122 822 1175 788 c 1
 1175 1022 l 1
 1116 1022 l 1
 1116 887 l 1
 664 887 l 1
 664 910 663 933 663 956 c 0
 663 1204 858 1248 1138 1248 c 0
 1496 1248 1607 1146 1607 837 c 2
 1607 330 l 1
 1777 330 l 1
 1777 832 l 2
 1777 1339 1587 1424 1152 1424 c 0
 565 1424 428 1204 428 692 c 0
 428 59 589 -58 1222 -58 c 0
 1322 -58 1443 -40 1704 22 c 1
 1762 -233 l 1
 1630 -320 1446 -393 1240 -393 c 0
 425 -393 74 -177 74 687 c 0
 74 1495 440 1741 1148 1741 c 0
 1840 1741 2133 1508 2133 878 c 0
 2133 409 2046 88 1553 88 c 1xde
1081 641 m 1
 1081 336 l 1
 1174 336 l 1xbe
 1174 641 l 1
 1081 641 l 1
EndSplineSet
Validated: 1
EndChar

StartChar: A
Encoding: 65 65 34
Width: 1565
Flags: HMW
HStem: 0 21G<36 622 36 36 945 945 945 1532> 366 210<677 873 695 873 695 891> 1283 312<762 801 762 762>
VStem: 36 1496<0 0>
LayerCount: 2
Fore
SplineSet
677 366 m 1
 622 0 l 1
 36 0 l 1
 328 1595 l 1
 1235 1595 l 1
 1532 0 l 1
 945 0 l 1
 891 366 l 1
 677 366 l 1
816 1085 m 1
 801 1283 l 1
 762 1283 l 1
 749 1085 l 1
 695 576 l 1
 873 576 l 1
 816 1085 l 1
EndSplineSet
Validated: 1
EndChar

StartChar: B
Encoding: 66 66 35
Width: 1533
Flags: HMW
HStem: 0 235<709 882 709 948> 770 181<709 882 709 882> 1358 237<709 882 709 709>
VStem: 882 229<235 893 770 893 854 1358>
LayerCount: 2
Fore
SplineSet
1223 905 m 2
 1111 893 l 1
 1111 854 l 1
 1223 841 l 2
 1421 818 1475 647 1475 460 c 0
 1475 91 1337 0 948 0 c 2
 105 0 l 1
 105 1595 l 1
 952 1595 l 2
 1212 1595 1434 1551 1434 1219 c 0
 1434 1019 1376 921 1223 905 c 2
709 235 m 1
 882 235 l 1
 882 770 l 1
 709 770 l 1
 709 235 l 1
709 951 m 1
 882 951 l 1
 882 1358 l 1
 709 1358 l 1
 709 951 l 1
EndSplineSet
Validated: 1
EndChar

StartChar: C
Encoding: 67 67 36
Width: 1540
Flags: HMW
HStem: -40 273<695 868 695 938> 1356 276<695 868 695 695>
VStem: 90 1382<370 614 181.5 979 979 1226 1226 1227 181.5 1412>
LayerCount: 2
Fore
SplineSet
868 1356 m 1
 695 1356 l 1
 695 233 l 1
 868 233 l 1
 868 614 l 1
 1472 614 l 1
 1472 369 l 2
 1472 -6 1090 -40 786 -40 c 0
 511 -40 90 -9 90 370 c 2
 90 1226 l 2
 90 1598 483 1632 783 1632 c 0
 1098 1632 1472 1606 1472 1227 c 2
 1472 979 l 1
 868 979 l 1
 868 1356 l 1
EndSplineSet
Validated: 1
EndChar

StartChar: D
Encoding: 68 68 37
Width: 1555
Flags: HMW
HStem: 0 235<708 859> 1358 237<708 859 859 881 708 708>
VStem: 103 1382<209.5 393 393 1204 209.5 1595 209.5 1595>
LayerCount: 2
Fore
SplineSet
708 235 m 1
 881 235 l 1
 881 1358 l 1
 708 1358 l 1
 708 235 l 1
1485 1204 m 2
 1485 393 l 2
 1485 26 1170 0 859 0 c 2
 103 0 l 1
 103 1595 l 1
 859 1595 l 2
 1175 1595 1485 1559 1485 1204 c 2
EndSplineSet
Validated: 1
EndChar

StartChar: E
Encoding: 69 69 38
Width: 1114
Flags: HMW
HStem: 0 251<708 1049 708 1049> 711 250<708 1026 708 1026> 1346 249<708 1049 708 708>
VStem: 104 945<0 251 1346 1595>
LayerCount: 2
Fore
SplineSet
1049 1595 m 1
 1049 1346 l 1
 708 1346 l 1
 708 961 l 1
 1026 961 l 1
 1026 711 l 1
 708 711 l 1
 708 251 l 1
 1049 251 l 1
 1049 0 l 1
 104 0 l 1
 104 1595 l 1
 1049 1595 l 1
EndSplineSet
Validated: 1
EndChar

StartChar: F
Encoding: 70 70 39
Width: 1102
Flags: HMW
HStem: 0 21G<104 708 104 104> 705 249<708 1026 708 1026> 1346 249<708 1049 708 708>
VStem: 104 945<1346 1595 1346 1595 1346 1595>
LayerCount: 2
Fore
SplineSet
1049 1595 m 1
 1049 1346 l 1
 708 1346 l 1
 708 954 l 1
 1026 954 l 1
 1026 705 l 1
 708 705 l 1
 708 0 l 1
 104 0 l 1
 104 1595 l 1
 1049 1595 l 1
EndSplineSet
Validated: 1
EndChar

StartChar: G
Encoding: 71 71 40
Width: 1547
Flags: HMW
HStem: -39 274<432 867> 0 235<694 1472 694 985> 538 231<782 867 782 1472> 1358 274<694 867 694 694>
VStem: 90 1382<359 769 979 1227 0 1228 0 1415>
LayerCount: 2
Fore
SplineSet
911 124 m 1xb8
 849 23 734 -39 560 -39 c 0xb8
 304 -39 90 83 90 359 c 2
 90 1228 l 2
 90 1602 479 1632 782 1632 c 0
 1046 1632 1472 1593 1472 1227 c 2
 1472 979 l 1
 867 979 l 1
 867 1358 l 1
 694 1358 l 1
 694 235 l 1
 867 235 l 1
 867 538 l 1
 782 538 l 1
 782 769 l 1
 1472 769 l 1
 1472 0 l 1
 985 0 l 1x78
 911 124 l 1xb8
EndSplineSet
Validated: 1
EndChar

StartChar: H
Encoding: 72 72 41
Width: 1585
Flags: HMW
HStem: 0 21G<104 708 104 104 901 1505 901 901> 688 220<708 901 708 901> 1575 20G<104 708 708 708 901 1505 1505 1505>
VStem: 104 1401<0 1595 0 1595>
LayerCount: 2
Fore
SplineSet
1505 1595 m 1
 1505 0 l 1
 901 0 l 1
 901 688 l 1
 708 688 l 1
 708 0 l 1
 104 0 l 1
 104 1595 l 1
 708 1595 l 1
 708 908 l 1
 901 908 l 1
 901 1595 l 1
 1505 1595 l 1
EndSplineSet
Validated: 1
EndChar

StartChar: I
Encoding: 73 73 42
Width: 788
Flags: HMW
HStem: 0 21G<104 708 104 104> 1575 20G<104 708 708 708>
VStem: 104 604<0 1595 0 1595>
LayerCount: 2
Fore
SplineSet
708 1595 m 1
 708 0 l 1
 104 0 l 1
 104 1595 l 1
 708 1595 l 1
EndSplineSet
Validated: 1
EndChar

StartChar: J
Encoding: 74 74 43
Width: 908
Flags: HMW
HStem: -159 297<54 457> 1574 20G<227 831 831 831>
VStem: 54 777<115 138 138 138>
LayerCount: 2
Fore
SplineSet
831 1594 m 1
 831 274 l 2
 831 -44 604 -159 310 -159 c 0
 229 -159 142 -150 54 -134 c 1
 54 138 l 1
 227 138 l 1
 227 1594 l 1
 831 1594 l 1
EndSplineSet
Validated: 1
EndChar

StartChar: K
Encoding: 75 75 44
Width: 1689
Flags: HMW
HStem: 0 21G<104 709 104 104 1025 1662 1025 1025> 1575 20G<104 709 709 709 1002 1621 1621 1621>
VStem: 104 1558<0 1595>
LayerCount: 2
Fore
SplineSet
1025 0 m 1
 766 696 l 1
 699 655 l 1
 709 492 l 1
 709 0 l 1
 104 0 l 1
 104 1595 l 1
 709 1595 l 1
 709 994 l 1
 699 850 l 1
 736 844 l 1
 773 985 l 1
 1002 1595 l 1
 1621 1595 l 1
 1279 844 l 1
 1662 0 l 1
 1025 0 l 1
EndSplineSet
Validated: 1
EndChar

StartChar: L
Encoding: 76 76 45
Width: 1094
Flags: HMW
HStem: 0 241<708 1049 708 1049> 1575 20G<104 708 708 708>
VStem: 104 945<0 241 0 1595>
LayerCount: 2
Fore
SplineSet
104 0 m 1
 104 1595 l 1
 708 1595 l 1
 708 241 l 1
 1049 241 l 1
 1049 0 l 1
 104 0 l 1
EndSplineSet
Validated: 1
EndChar

StartChar: M
Encoding: 77 77 46
Width: 1909
Flags: HMW
HStem: 0 21G<76 557 76 76 752 1179 752 752 1386 1386 1386 1852> 1575 20G<150 830 830 830 1097 1778 1778 1778>
VStem: 76 1776<0 0>
LayerCount: 2
Fore
SplineSet
1316 958 m 1
 1179 0 l 1
 752 0 l 1
 627 958 l 1
 587 958 l 1
 599 689 l 1
 557 0 l 1
 76 0 l 1
 150 1595 l 1
 830 1595 l 1
 930 880 l 1
 943 611 l 1
 982 611 l 1
 997 880 l 1
 1097 1595 l 1
 1778 1595 l 1
 1852 0 l 1
 1386 0 l 1
 1344 689 l 1
 1356 958 l 1
 1316 958 l 1
EndSplineSet
Validated: 1
EndChar

StartChar: N
Encoding: 78 78 47
Width: 1576
Flags: HMW
HStem: 0 21G<104 552 104 104 957 1496 957 957> 1575 20G<104 621 621 621 1052 1496 1496 1496>
VStem: 104 1392<0 1595 0 1595>
LayerCount: 2
Fore
SplineSet
957 0 m 1
 552 711 l 1
 552 0 l 1
 104 0 l 1
 104 1595 l 1
 621 1595 l 1
 1052 834 l 1
 1052 1595 l 1
 1496 1595 l 1
 1496 0 l 1
 957 0 l 1
EndSplineSet
Validated: 1
EndChar

StartChar: O
Encoding: 79 79 48
Width: 1542
Flags: HMW
HStem: -39 274<694 777> 1362 269<694 867 694 694>
VStem: 89 1382<370 1226 180.5 1412>
LayerCount: 2
Fore
SplineSet
694 235 m 1
 867 235 l 1
 867 1362 l 1
 694 1362 l 1
 694 235 l 1
777 -39 m 1
 457 -39 89 -11 89 370 c 2
 89 1226 l 2
 89 1598 476 1631 777 1631 c 0
 1049 1631 1471 1603 1471 1226 c 2
 1471 370 l 2
 1471 -9 1079 -38 777 -39 c 1
EndSplineSet
Validated: 1
EndChar

StartChar: P
Encoding: 80 80 49
Width: 1550
Flags: HMW
HStem: 0 21G<104 708 104 104> 402 226<708 860 708 708> 1362 233<707 859 859 880 707 707>
VStem: 104 1381<610.5 793 793 1204 610.5 1595 610.5 1595>
LayerCount: 2
Fore
SplineSet
104 1595 m 1
 859 1595 l 2
 1175 1595 1485 1559 1485 1204 c 2
 1485 793 l 2
 1485 428 1170 402 860 402 c 2
 708 402 l 1
 708 0 l 1
 104 0 l 1
 104 1595 l 1
707 628 m 1
 880 628 l 1
 880 1362 l 1
 707 1362 l 1
 707 628 l 1
EndSplineSet
Validated: 1
EndChar

StartChar: Q
Encoding: 81 81 50
Width: 1542
Flags: HMW
HStem: -391 312<1017 1286.5> -12 21G 1362 270<695 868 695 695>
VStem: 90 1382<370 1226 244 1412>
LayerCount: 2
Fore
SplineSet
1393 -379 m 1
 1311 -387 1236 -391 1167 -391 c 0
 867 -391 701 -305 652 -36 c 1
 368 -21 90 39 90 370 c 2
 90 1226 l 2
 90 1598 477 1632 778 1632 c 0
 1050 1632 1472 1603 1472 1226 c 2
 1472 370 l 2
 1472 118 1315 30 1099 -12 c 1
 1102 -62 1170 -79 1255 -79 c 0
 1318 -79 1391 -69 1453 -57 c 1
 1393 -379 l 1
695 235 m 1
 868 235 l 1
 868 1362 l 1
 695 1362 l 1
 695 235 l 1
EndSplineSet
Validated: 1
EndChar

StartChar: R
Encoding: 82 82 51
Width: 1553
Flags: HMW
HStem: 0 21G<104 708 104 104 881 1487 881 881> 649 232<708 881 708 881> 1358 237<708 881 708 708>
VStem: 881 230<0 792 649 792 753 1358>
LayerCount: 2
Fore
SplineSet
1243 805 m 2
 1111 792 l 1
 1111 753 l 1
 1243 738 l 2
 1394 721 1487 609 1487 437 c 2
 1487 0 l 1
 881 0 l 1
 881 649 l 1
 708 649 l 1
 708 0 l 1
 104 0 l 1
 104 1595 l 1
 1017 1595 l 2
 1306 1595 1471 1502 1471 1190 c 0
 1471 968 1408 821 1243 805 c 2
708 881 m 1
 881 881 l 1
 881 1358 l 1
 708 1358 l 1
 708 881 l 1
EndSplineSet
Validated: 1
EndChar

StartChar: S
Encoding: 83 83 52
Width: 1469
Flags: HMW
HStem: -39 274<646 819 646 986.5> 1358 273<644 817 644 644>
VStem: 67 1358<312 1330.5>
LayerCount: 2
Fore
SplineSet
644 1125 m 1
 647 1123 l 1
 647 1083 724 1074 769 1066 c 0
 1079 1011 1425 954 1425 542 c 0
 1425 82 1226 -39 747 -39 c 0
 474 -39 112 -10 79 345 c 0
 75 390 73 438 73 488 c 1
 646 488 l 1
 646 235 l 1
 819 235 l 1
 819 485 l 2
 819 538 750 559 701 575 c 0
 418 667 67 712 67 1111 c 0
 67 1550 349 1631 717 1631 c 0
 1101 1631 1352 1573 1353 1180 c 1
 817 1180 l 1
 817 1358 l 1
 644 1358 l 1
 644 1125 l 1
EndSplineSet
Validated: 1
EndChar

StartChar: T
Encoding: 84 84 53
Width: 1324
Flags: HMW
HStem: 0 21G<361 965 361 361> 1326 269<8 361 8 1321 965 1321 965 965>
VStem: 8 1313<1326 1595 1326 1595>
LayerCount: 2
Fore
SplineSet
1321 1595 m 1
 1321 1326 l 1
 965 1326 l 1
 965 0 l 1
 361 0 l 1
 361 1326 l 1
 8 1326 l 1
 8 1595 l 1
 1321 1595 l 1
EndSplineSet
Validated: 1
EndChar

StartChar: U
Encoding: 85 85 54
Width: 1556
Flags: HMW
HStem: -39 273<701 874 701 937> 1574 20G<874 1479 1479 1479> 1575 20G<97 701 701 701>
VStem: 97 1382<371 1594 183 1595 183 1595>
LayerCount: 2
Fore
SplineSet
701 234 m 1xb0
 874 234 l 1
 874 1594 l 1
 1479 1594 l 1xd0
 1479 370 l 2
 1479 -4 1088 -39 786 -39 c 0
 509 -39 97 -7 97 371 c 2
 97 1595 l 1
 701 1595 l 1
 701 234 l 1xb0
EndSplineSet
Validated: 1
EndChar

StartChar: V
Encoding: 86 86 55
Width: 1526
Flags: HMW
HStem: 0 412<746 785 746 1186 344 785> 1575 20G<26 617 617 617 912 1504 1504 1504>
VStem: 26 1478<1595 1595>
LayerCount: 2
Fore
SplineSet
733 681 m 1
 746 412 l 1
 785 412 l 1
 800 681 l 1
 912 1595 l 1
 1504 1595 l 1
 1186 0 l 1
 344 0 l 1
 26 1595 l 1
 617 1595 l 1
 733 681 l 1
EndSplineSet
Validated: 1
EndChar

StartChar: W
Encoding: 87 87 56
Width: 2108
Flags: HMW
HStem: 0 21G<267 909 267 267 1174 1836 1174 1174> 1575 20G<38 621 621 621 805 1319 1319 1319 1544 2075 2075 2075>
VStem: 38 2037<1595 1595>
LayerCount: 2
Fore
SplineSet
1401 853 m 1
 1418 584 l 1
 1450 586 l 1
 1544 1595 l 1
 2075 1595 l 1
 1836 0 l 1
 1174 0 l 1
 1076 628 l 1
 1061 927 l 1
 1022 927 l 1
 1009 628 l 1
 909 0 l 1
 267 0 l 1
 38 1595 l 1
 621 1595 l 1
 666 584 l 1
 705 584 l 1
 721 853 l 1
 805 1595 l 1
 1319 1595 l 1
 1401 853 l 1
EndSplineSet
Validated: 1
EndChar

StartChar: X
Encoding: 88 88 57
Width: 1539
Flags: HMW
HStem: 0 21G<22 590 22 22 950 950 950 1525> 1575 20G<22 594 594 594 954 1525 1525 1525>
VStem: 22 1503<0 0>
LayerCount: 2
Fore
SplineSet
590 0 m 1
 22 0 l 1
 349 782 l 1
 22 1595 l 1
 594 1595 l 1
 740 1157 l 1
 757 1041 l 1
 786 1041 l 1
 803 1157 l 1
 954 1595 l 1
 1525 1595 l 1
 1195 782 l 1
 1525 0 l 1
 950 0 l 1
 799 438 l 1
 782 554 l 1
 753 554 l 1
 736 438 l 1
 590 0 l 1
EndSplineSet
Validated: 1
EndChar

StartChar: Y
Encoding: 89 89 58
Width: 1552
Flags: HMW
HStem: 0 21G<477 1082 477 477> 1575 20G<32 592 592 592 968 1524 1524 1524>
VStem: 32 1492<1595 1595>
LayerCount: 2
Fore
SplineSet
746 1021 m 1
 763 815 l 1
 792 815 l 1
 809 1021 l 1
 968 1595 l 1
 1524 1595 l 1
 1082 449 l 1
 1082 0 l 1
 477 0 l 1
 477 459 l 1
 32 1595 l 1
 592 1595 l 1
 746 1021 l 1
EndSplineSet
Validated: 1
EndChar

StartChar: Z
Encoding: 90 90 59
Width: 1138
Flags: HMW
HStem: 0 294<745 1082 745 1082> 1304 291<68 440 68 1092>
VStem: 56 1036
LayerCount: 2
Fore
SplineSet
1092 1595 m 1
 745 294 l 1
 1082 294 l 1
 1082 0 l 1
 56 0 l 1
 440 1304 l 1
 68 1304 l 1
 68 1595 l 1
 1092 1595 l 1
EndSplineSet
Validated: 1
EndChar

StartChar: bracketleft
Encoding: 91 91 60
Width: 1111
Flags: HMW
HStem: -319 242<734 1075 734 1075> 1578 241<734 1075 734 734>
VStem: 100 975<-319 -77 1578 1819>
LayerCount: 2
Fore
SplineSet
100 1819 m 1
 1075 1819 l 1
 1075 1578 l 1
 734 1578 l 1
 734 -77 l 1
 1075 -77 l 1
 1075 -319 l 1
 100 -319 l 1
 100 1819 l 1
EndSplineSet
Validated: 1
EndChar

StartChar: backslash
Encoding: 92 92 61
Width: 1053
Flags: HMW
HStem: 0 21G<464 939 464 464> 1575 20G<113 587 587 587>
VStem: 113 826
LayerCount: 2
Fore
SplineSet
587 1595 m 1
 939 0 l 1
 464 0 l 1
 113 1595 l 1
 587 1595 l 1
EndSplineSet
Validated: 1
EndChar

StartChar: bracketright
Encoding: 93 93 62
Width: 1108
Flags: HMW
HStem: -319 242<35 376 35 1010 35 376> 1578 241<35 376 35 1010>
VStem: 35 975<-319 -77 -77 -77 1578 1819>
LayerCount: 2
Fore
SplineSet
1010 -319 m 1
 35 -319 l 1
 35 -77 l 1
 376 -77 l 1
 376 1578 l 1
 35 1578 l 1
 35 1819 l 1
 1010 1819 l 1
 1010 -319 l 1
EndSplineSet
Validated: 1
EndChar

StartChar: asciicircum
Encoding: 94 94 63
Width: 1222
Flags: HMW
HStem: 61 615<318 526 46 896 698 896 318 1179 698 698>
VStem: 46 1133<61 61>
LayerCount: 2
Fore
SplineSet
896 676 m 1
 1179 61 l 1
 698 61 l 1
 610 381 l 1
 526 61 l 1
 46 61 l 1
 318 676 l 1
 896 676 l 1
EndSplineSet
Validated: 1
EndChar

StartChar: underscore
Encoding: 95 95 64
Width: 1042
Flags: HMW
HStem: -435 436<78 967 78 967>
VStem: 78 889<-435 1 -435 1>
LayerCount: 2
Fore
SplineSet
967 1 m 1
 967 -435 l 1
 78 -435 l 1
 78 1 l 1
 967 1 l 1
EndSplineSet
Validated: 1
EndChar

StartChar: quoteleft
Encoding: 8216 8216 65
Width: 722
Flags: HMW
HStem: 1518 112<391.5 546> 1607 20G<546 546>
VStem: 155 414<1162.5 1251.5 1120.5 1319>
LayerCount: 2
Fore
SplineSet
569 1187 m 0xa0
 569 1054 472 987 375 987 c 0
 224 987 155 1098 155 1227 c 0
 155 1411 281 1630 502 1630 c 0xa0
 516 1630 531 1629 546 1627 c 1x60
 546 1518 l 1
 466 1517 396 1473 390 1396 c 1
 483 1386 569 1316 569 1187 c 0xa0
EndSplineSet
Validated: 1
EndChar

StartChar: a
Encoding: 97 97 66
Width: 1464
Flags: HMW
HStem: -27 227<351.5 811> 1 199<645 1410 645 890> 139 61<645 834> 653 171<390 645 390 811> 1106 221<672 811 672 672>
VStem: 73 1337<1 540.5>
LayerCount: 2
Fore
SplineSet
1381 257 m 1x5c
 1382 162 1394 75 1410 1 c 1x5c
 890 1 l 1x3c
 834 139 l 1
 773 38 658 -27 494 -27 c 0x9c
 209 -27 73 107 73 388 c 0
 73 693 235 824 545 824 c 0
 652 824 738 807 811 783 c 1
 811 1106 l 1
 672 1106 l 1
 672 915 l 1
 147 895 l 1
 141 930 136 966 136 1005 c 0
 136 1304 503 1327 740 1327 c 0
 1047 1327 1381 1303 1381 952 c 2
 1381 257 l 1x5c
645 653 m 1
 645 200 l 1
 811 200 l 1
 811 653 l 1
 645 653 l 1
EndSplineSet
Validated: 1
EndChar

StartChar: b
Encoding: 98 98 67
Width: 1481
Flags: HMW
HStem: -27 21G<924.5 1136> 0 199<105 843> 1105 222<676 1134.5> 1690 20G<105 676 676 676>
VStem: 105 1309<241.5 377 377 940 241.5 1710>
LayerCount: 2
Fore
SplineSet
997 -27 m 0
 852 -27 722 25 662 114 c 1
 625 0 l 1
 105 0 l 1x78
 105 1710 l 1
 676 1710 l 1
 676 1215 l 1
 743 1292 850 1327 1000 1327 c 0
 1269 1327 1414 1205 1414 940 c 2
 1414 377 l 2
 1414 106 1275 -27 997 -27 c 0
676 199 m 1x78
 843 199 l 1
 843 1105 l 1
 676 1105 l 1
 676 199 l 1x78
EndSplineSet
Validated: 1
EndChar

StartChar: c
Encoding: 99 99 68
Width: 1462
Flags: HMW
HStem: -27 226<658 825 658 894> 1105 222<658 825 658 658>
VStem: 86 1311<171 955 171 1132.5>
LayerCount: 2
Fore
SplineSet
1396 539 m 1
 1397 352 l 1
 1397 -10 1045 -27 743 -27 c 0
 434 -27 86 -1 86 355 c 2
 86 955 l 2
 86 1310 454 1327 749 1327 c 0
 1004 1327 1396 1326 1396 978 c 2
 1396 787 l 1
 825 787 l 1
 825 1105 l 1
 658 1105 l 1
 658 199 l 1
 825 199 l 1
 825 539 l 1
 1396 539 l 1
EndSplineSet
Validated: 1
EndChar

StartChar: d
Encoding: 100 100 69
Width: 1478
Flags: HMW
HStem: -27 21G<363 575> 0 199<655 1394 655 874> 1105 222<364 822 364 655> 1690 20G<823 1394 1394 1394>
VStem: 85 1309<377 940 940 1071.5>
LayerCount: 2
Fore
SplineSet
500 1327 m 0
 650 1327 756 1292 823 1215 c 1
 823 1710 l 1
 1394 1710 l 1
 1394 0 l 1
 874 0 l 1x78
 837 114 l 1
 775 26 648 -27 502 -27 c 0xb8
 224 -27 85 106 85 377 c 2
 85 940 l 2
 85 1203 228 1327 500 1327 c 0
822 1105 m 1
 655 1105 l 1
 655 199 l 1
 822 199 l 1
 822 1105 l 1
EndSplineSet
Validated: 1
EndChar

StartChar: e
Encoding: 101 101 70
Width: 1463
Flags: HMW
HStem: -27 226<658 825 658 964> 604 173<658 826 658 1396 658 826> 1105 222<658 826 658 658>
VStem: 86 1318<353 396 227 953 227 1129.5>
LayerCount: 2
Fore
SplineSet
1396 483 m 1
 1401 445 1404 412 1404 380 c 0
 1404 74 1185 -27 743 -27 c 0
 439 -27 86 -11 86 353 c 2
 86 953 l 2
 86 1306 455 1327 741 1327 c 0
 1034 1327 1396 1309 1396 954 c 2
 1396 604 l 1
 658 604 l 1
 658 199 l 1
 825 199 l 1
 825 483 l 1
 1396 483 l 1
658 777 m 1
 826 777 l 1
 826 1105 l 1
 658 1105 l 1
 658 777 l 1
EndSplineSet
Validated: 1
EndChar

StartChar: f
Encoding: 102 102 71
Width: 1205
Flags: HMW
HStem: 0 21G<263 834 263 263> 1098 202<56 263 56 263 834 1148> 1477 254<609 1139 609 834>
VStem: 56 1092<1098 1300 1098 1300>
LayerCount: 2
Fore
SplineSet
263 1300 m 1
 263 1624 445 1731 773 1731 c 0
 895 1731 1021 1719 1139 1683 c 1
 1139 1477 l 1
 834 1477 l 1
 834 1300 l 1
 1148 1300 l 1
 1148 1098 l 1
 834 1098 l 1
 834 0 l 1
 263 0 l 1
 263 1098 l 1
 56 1098 l 1
 56 1300 l 1
 263 1300 l 1
EndSplineSet
Validated: 1
EndChar

StartChar: g
Encoding: 103 103 72
Width: 1470
Flags: HMW
HStem: -372 313<575 651 539 921> 91 225<369.5 823> 1104 195<656 1394> 1104 223<369.5 823 369.5 656>
VStem: 85 1309<482 927 927 1061.5>
LayerCount: 2
Fore
SplineSet
508 1327 m 1xd8
 664 1326 781 1276 847 1187 c 1
 883 1299 l 1
 1394 1299 l 1xe8
 1394 236 l 2
 1394 -184 1167 -372 675 -372 c 0
 475 -372 321 -345 198 -311 c 1
 255 -20 l 1
 338 -43 477 -59 601 -59 c 0
 701 -59 791 -49 836 -22 c 1
 836 205 l 1
 774 125 644 91 505 91 c 0
 234 91 85 214 85 482 c 2
 85 927 l 2
 85 1196 231 1327 508 1327 c 1xd8
823 1104 m 1xe8
 656 1104 l 1
 656 316 l 1
 823 316 l 1
 823 1104 l 1xe8
EndSplineSet
Validated: 1
EndChar

StartChar: h
Encoding: 104 104 73
Width: 1486
Flags: HMW
HStem: 0 21G<105 676 105 105 843 1414 843 843> 1105 222<676 1131.5> 1690 20G<105 676 676 676>
VStem: 105 1309<0 945 0 1710 0 1710>
LayerCount: 2
Fore
SplineSet
997 1327 m 0
 1266 1327 1414 1206 1414 945 c 2
 1414 0 l 1
 843 0 l 1
 843 1105 l 1
 676 1105 l 1
 676 0 l 1
 105 0 l 1
 105 1710 l 1
 676 1710 l 1
 676 1210 l 1
 733 1288 864 1327 997 1327 c 0
EndSplineSet
Validated: 1
EndChar

StartChar: i
Encoding: 105 105 74
Width: 759
Flags: HMW
HStem: 0 21G<104 675 104 104> 1280 20G<104 675 675 675> 1425 284<104 675 104 675>
VStem: 104 571<0 1300 1425 1709>
LayerCount: 2
Fore
SplineSet
675 0 m 1
 104 0 l 1
 104 1300 l 1
 675 1300 l 1
 675 0 l 1
675 1709 m 1
 675 1425 l 1
 104 1425 l 1
 104 1709 l 1
 675 1709 l 1
EndSplineSet
Validated: 1
EndChar

StartChar: j
Encoding: 106 106 75
Width: 868
Flags: HMW
HStem: -326 260<23 471.5> 1280 20G<212 784 784 784> 1425 284<212 784 212 784>
VStem: 23 761<-66 94>
LayerCount: 2
Fore
SplineSet
784 94 m 2
 784 -199 620 -326 323 -326 c 0
 214 -326 134 -321 53 -305 c 1
 23 -66 l 1
 212 -66 l 1
 212 1300 l 1
 784 1300 l 1
 784 94 l 2
784 1709 m 1
 784 1425 l 1
 212 1425 l 1
 212 1709 l 1
 784 1709 l 1
EndSplineSet
Validated: 1
EndChar

StartChar: k
Encoding: 107 107 76
Width: 1525
Flags: HMW
HStem: 0 21G<105 105 105 676 958 958 958 1538> 1280 20G<945 1531 1531 1531> 1690 20G<105 676 676 676>
VStem: 105 1433<0 1710>
LayerCount: 2
Fore
SplineSet
105 0 m 1
 105 1710 l 1
 676 1710 l 1
 676 798 l 1
 945 1300 l 1
 1531 1300 l 1
 1200 690 l 1
 1538 0 l 1
 958 0 l 1
 719 575 l 1
 676 478 l 1
 676 0 l 1
 105 0 l 1
EndSplineSet
Validated: 1
EndChar

StartChar: l
Encoding: 108 108 77
Width: 760
Flags: HMW
HStem: 0 21G<105 676 105 105> 1690 20G<105 676 676 676>
VStem: 105 571<0 1710>
LayerCount: 2
Fore
SplineSet
676 0 m 1
 105 0 l 1
 105 1710 l 1
 676 1710 l 1
 676 0 l 1
EndSplineSet
Validated: 1
EndChar

StartChar: m
Encoding: 109 109 78
Width: 2189
Flags: HMW
HStem: 0 21G<100 663 100 100 830 1387 830 830 1553 2116 1553 1553> 1105 195<100 830 100 663> 1105 222<663 1085>
VStem: 100 2016<0 944 0 1300 0 1300>
LayerCount: 2
Fore
SplineSet
1693 1327 m 0xb0
 1960 1327 2116 1202 2116 944 c 2
 2116 0 l 1
 1553 0 l 1
 1553 1105 l 1
 1380 1105 l 1
 1386 1072 1387 1037 1387 1001 c 2
 1387 0 l 1
 830 0 l 1
 830 1105 l 1
 663 1105 l 1
 663 0 l 1
 100 0 l 1
 100 1300 l 1
 612 1300 l 1xd0
 649 1188 l 1
 714 1276 858 1327 1007 1327 c 0
 1163 1327 1278 1274 1346 1191 c 1
 1408 1281 1535 1327 1693 1327 c 0xb0
EndSplineSet
Validated: 1
EndChar

StartChar: n
Encoding: 110 110 79
Width: 1482
Flags: HMW
HStem: 0 21G<99 670 99 99 837 1408 837 837> 1105 195<99 837 99 670> 1105 222<670 987>
VStem: 99 1309<0 944 0 1300 0 1300>
LayerCount: 2
Fore
SplineSet
987 1327 m 0xb0
 1260 1326 1408 1195 1408 944 c 2
 1408 0 l 1
 837 0 l 1
 837 1105 l 1
 670 1105 l 1
 670 0 l 1
 99 0 l 1
 99 1300 l 1
 609 1300 l 1xd0
 646 1188 l 1
 705 1271 837 1327 987 1327 c 0xb0
EndSplineSet
Validated: 1
EndChar

StartChar: o
Encoding: 111 111 80
Width: 1465
Flags: HMW
HStem: -27 260<658 824 658 897.5> 1105 222<658 824 658 658>
VStem: 87 1309<353 952 167.5 953 167.5 1126.5>
LayerCount: 2
Fore
SplineSet
658 233 m 1
 824 233 l 1
 824 1105 l 1
 658 1105 l 1
 658 233 l 1
745 -27 m 0
 427 -27 87 -7 87 353 c 2
 87 953 l 2
 87 1300 449 1327 746 1327 c 0
 1065 1327 1396 1296 1396 952 c 2
 1396 352 l 2
 1396 -17 1050 -27 745 -27 c 0
EndSplineSet
Validated: 1
EndChar

StartChar: p
Encoding: 112 112 81
Width: 1476
Flags: HMW
HStem: -408 21G<99 670 99 99> -27 226<670 1126> 1105 195<99 837 99 670> 1105 222<670 1124>
VStem: 626 44
LayerCount: 2
Fore
SplineSet
989 -27 m 0xe8
 850 -27 731 8 670 87 c 1
 670 -408 l 1
 99 -408 l 1
 99 1300 l 1
 589 1300 l 1xe8
 626 1188 l 1
 693 1277 834 1327 986 1327 c 0xd8
 1262 1327 1409 1198 1409 926 c 2
 1409 365 l 2
 1409 99 1263 -27 989 -27 c 0xe8
670 199 m 1
 837 199 l 1
 837 1105 l 1
 670 1105 l 1
 670 199 l 1
EndSplineSet
Validated: 1
EndChar

StartChar: q
Encoding: 113 113 82
Width: 1459
Flags: HMW
HStem: -408 21G<832 1381 832 832> -27 226<364 817> 1105 195<652 1381> 1307 20G<364 555>
VStem: 85 1296<926 1060>
LayerCount: 2
Fore
SplineSet
86 926 m 1
 85 926 l 1
 85 1194 226 1327 502 1327 c 0
 608 1327 702 1292 768 1248 c 0xd8
 794 1231 815 1211 831 1188 c 1
 869 1300 l 1
 1381 1300 l 1xe8
 1381 -408 l 1
 832 -408 l 1
 832 87 l 1
 764 9 644 -27 501 -27 c 0
 227 -27 86 99 86 365 c 2
 86 926 l 1
817 1105 m 1xe8
 652 1105 l 1
 652 199 l 1
 817 199 l 1
 817 1105 l 1xe8
EndSplineSet
Validated: 1
EndChar

StartChar: r
Encoding: 114 114 83
Width: 981
Flags: HMW
HStem: 0 21G<100 100 100 671> 1280 20G<101 587 587 587> 1307 20G<957 957>
VStem: 100 857
LayerCount: 2
Fore
SplineSet
100 0 m 1
 101 1300 l 1
 587 1300 l 1xd0
 628 1153 l 1
 673 1260 802 1323 957 1327 c 1
 957 949 l 1
 671 893 l 1
 671 0 l 1
 100 0 l 1
EndSplineSet
Validated: 1
EndChar

StartChar: s
Encoding: 115 115 84
Width: 1434
Flags: HMW
HStem: -27 260<640 807 640 878.5> 1063 264<640 807 640 640>
VStem: 70 1308<213 1083>
LayerCount: 2
Fore
SplineSet
807 446 m 1
 808 446 l 1
 803 452 788 457 764 460 c 0
 653 475 526 488 422 517 c 0
 235 569 70 685 70 900 c 0
 70 1266 367 1327 739 1327 c 0
 1012 1327 1347 1309 1347 956 c 0
 1347 901 1347 887 1346 872 c 1
 807 902 l 1
 807 1063 l 1
 640 1063 l 1
 640 861 l 1
 646 855 661 850 685 846 c 0
 796 828 922 815 1027 786 c 0
 1207 736 1378 629 1378 420 c 0
 1378 6 1047 -27 710 -27 c 0
 358 -27 100 8 100 397 c 0
 100 408 100 420 101 432 c 1
 640 400 l 1
 640 233 l 1
 807 233 l 1
 807 446 l 1
EndSplineSet
Validated: 1
EndChar

StartChar: t
Encoding: 116 116 85
Width: 968
Flags: HMW
HStem: 0 21G<193 764 193 193> 1100 200<56 193 56 193 764 923> 1575 20G<193 764 764 764>
VStem: 56 867<1100 1300 1100 1300>
LayerCount: 2
Fore
SplineSet
764 0 m 1
 193 0 l 1
 193 1100 l 1
 56 1100 l 1
 56 1300 l 1
 193 1300 l 1
 193 1595 l 1
 764 1595 l 1
 764 1300 l 1
 923 1300 l 1
 923 1100 l 1
 764 1100 l 1
 764 0 l 1
EndSplineSet
Validated: 1
EndChar

StartChar: u
Encoding: 117 117 86
Width: 1478
Flags: HMW
HStem: -27 260<380.5 829> 0 233<663 1401 663 884> 1280 20G<91 663 663 663 829 1401 1401 1401>
VStem: 91 1310<360 1300 0 1300>
LayerCount: 2
Fore
SplineSet
515 -27 m 0xb0
 246 -27 91 96 91 360 c 2
 91 1300 l 1
 663 1300 l 1
 663 233 l 1
 829 233 l 1
 829 1300 l 1
 1401 1300 l 1
 1401 0 l 1
 884 0 l 1x70
 847 112 l 1
 793 24 653 -27 515 -27 c 0xb0
EndSplineSet
Validated: 1
EndChar

StartChar: v
Encoding: 118 118 87
Width: 1348
Flags: HMW
HStem: 0 340<652 701 652 1073> 1280 20G<4 565 565 565 786 1347 1347 1347>
VStem: 4 1343<1300 1300>
LayerCount: 2
Fore
SplineSet
635 686 m 1
 652 340 l 1
 701 340 l 1
 718 686 l 1
 786 1300 l 1
 1347 1300 l 1
 1073 0 l 1
 279 0 l 1
 4 1300 l 1
 565 1300 l 1
 635 686 l 1
EndSplineSet
Validated: 1
EndChar

StartChar: w
Encoding: 119 119 88
Width: 2066
Flags: HMW
HStem: 0 385<637 681 637 940 1385 1429> 801 499<1013 1043 1013 1013> 1280 20G<32 562 562 562 763 1308 1308 1308 1502 2031 2031 2031>
VStem: 32 1999<1300 1300>
LayerCount: 2
Fore
SplineSet
992 435 m 1xb0
 940 0 l 1
 250 0 l 1
 32 1300 l 1
 562 1300 l 1
 617 761 l 1
 637 385 l 1
 681 385 l 1
 711 761 l 1
 763 1300 l 1
 1308 1300 l 1
 1359 761 l 1
 1385 385 l 1
 1429 385 l 1
 1449 761 l 1
 1502 1300 l 1
 2031 1300 l 1
 1813 0 l 1
 1119 0 l 1
 1065 435 l 1
 1043 801 l 1
 1013 801 l 1xd0
 992 435 l 1xb0
EndSplineSet
Validated: 1
EndChar

StartChar: x
Encoding: 120 120 89
Width: 1395
Flags: HMW
HStem: 0 21G<45 45 45 612 794 794 794 1361> 1280 20G<45 617 617 617 790 1361 1361 1361>
VStem: 45 1316<0 0 0 1300>
LayerCount: 2
Fore
SplineSet
45 0 m 1
 418 652 l 1
 45 1300 l 1
 617 1300 l 1
 703 1049 l 1
 790 1300 l 1
 1361 1300 l 1
 988 652 l 1
 1361 0 l 1
 794 0 l 1
 703 258 l 1
 612 0 l 1
 45 0 l 1
EndSplineSet
Validated: 1
EndChar

StartChar: y
Encoding: 121 121 90
Width: 1342
Flags: HMW
HStem: -371 318<529 554.5 473.5 715> 1280 20G<20 553 553 553 781 1333 1333 1333>
VStem: 20 1313<1300 1300>
LayerCount: 2
Fore
SplineSet
628 693 m 1
 639 417 l 1
 709 417 l 1
 721 693 l 1
 781 1300 l 1
 1333 1300 l 1
 1113 14 l 2
 1060 -299 842 -371 588 -371 c 0
 470 -371 334 -346 192 -318 c 1
 235 -13 l 1
 323 -35 425 -53 522 -53 c 0
 587 -53 650 -45 705 -24 c 1
 705 135 l 1
 705 135 580 89 449 89 c 0
 351 89 247 128 211 277 c 1
 20 1300 l 1
 553 1300 l 1
 628 693 l 1
EndSplineSet
Validated: 1
EndChar

StartChar: z
Encoding: 122 122 91
Width: 1118
Flags: HMW
HStem: 0 246<696 1059 696 1059> 1051 249<100 436 100 1052>
VStem: 76 983<0 233 233 233>
LayerCount: 2
Fore
SplineSet
100 1300 m 1
 1052 1300 l 1
 1052 1079 l 1
 696 246 l 1
 1059 246 l 1
 1059 0 l 1
 76 0 l 1
 76 233 l 1
 436 1051 l 1
 100 1051 l 1
 100 1300 l 1
EndSplineSet
Validated: 1
EndChar

StartChar: braceleft
Encoding: 123 123 92
Width: 1132
Flags: HMW
HStem: -330 279<831 1101> 658 279<85 179 85 180> 1646 279<830.5 1100 830.5 1100>
VStem: 85 1016<-330 937 -330 937>
CounterMasks: 1 e0
LayerCount: 2
Fore
SplineSet
1100 1925 m 1
 1100 1646 l 1
 536 1646 890 1008 609 796 c 1
 890 612 536 -51 1101 -51 c 1
 1101 -330 l 1
 561 -330 310 -166 273 366 c 1
 256 495 275 658 85 658 c 1
 85 937 l 1
 273 937 256 1090 274 1228 c 0
 344 1752 561 1925 1100 1925 c 1
EndSplineSet
Validated: 1
EndChar

StartChar: bar
Encoding: 124 124 93
Width: 831
Flags: HMW
HStem: -100 1895<129 700 129 700>
VStem: 129 571<-100 1795 -100 1795>
LayerCount: 2
Fore
SplineSet
700 1795 m 1
 700 -100 l 1
 129 -100 l 1
 129 1795 l 1
 700 1795 l 1
EndSplineSet
Validated: 1
EndChar

StartChar: braceright
Encoding: 125 125 94
Width: 1131
Flags: HMW
HStem: -330 279<58 328> 658 279<980 1074 980 1074> 1646 279<59 328.5 59 341>
VStem: 58 1016<-330 937 -51 937>
CounterMasks: 1 e0
LayerCount: 2
Fore
SplineSet
59 1646 m 1
 59 1925 l 1
 598 1925 815 1752 885 1228 c 0
 903 1090 886 937 1074 937 c 1
 1074 658 l 1
 884 658 903 495 886 366 c 1
 849 -166 598 -330 58 -330 c 1
 58 -51 l 1
 623 -51 269 612 550 796 c 1
 269 1008 623 1646 59 1646 c 1
EndSplineSet
Validated: 1
EndChar

StartChar: asciitilde
Encoding: 126 126 95
Width: 1424
Flags: HMW
HStem: 616 392<437.5 575.5 437.5 597.5> 806 395<881 989>
VStem: 73 1281<642 1176>
LayerCount: 2
Fore
SplineSet
1057 642 m 1x60
 1057 728 1028 806 950 806 c 0x60
 784 806 715 616 480 616 c 0
 135 616 73 885 73 1176 c 1
 369 1176 l 1
 369 1089 394 1008 481 1008 c 0xa0
 670 1008 754 1201 1008 1201 c 0
 1312 1201 1354 992 1354 642 c 1
 1057 642 l 1x60
EndSplineSet
Validated: 1
EndChar

StartChar: exclamdown
Encoding: 161 161 96
Width: 719
Flags: HMW
HStem: 1607 20G<302.5 404.5>
VStem: 118 511<112.5 260>
LayerCount: 2
Fore
SplineSet
311 989 m 1
 310 989 l 1
 321 1035 346 1057 371 1057 c 0
 396 1057 421 1034 431 989 c 0
 495 722 629 343 629 185 c 0
 629 40 498 -35 369 -35 c 0
 243 -35 118 36 118 183 c 0
 118 337 248 716 311 989 c 1
151 1392 m 1
 152 1391 l 1
 152 1551 252 1627 353 1627 c 0
 456 1627 561 1548 561 1398 c 0
 561 1257 458 1187 355 1187 c 0
 253 1187 151 1256 151 1392 c 1
EndSplineSet
Validated: 1
EndChar

StartChar: cent
Encoding: 162 162 97
Width: 1462
Flags: HMW
HStem: 147 226<598 706 598 785> 1119 224<598 706 598 706 706 885 706 785>
VStem: 706 79<-74 147 -74 147 373 1119 1343 1578>
LayerCount: 2
Fore
SplineSet
1396 633 m 1
 1396 523 l 2
 1396 180 1077 149 785 147 c 1
 785 -74 l 1
 706 -74 l 1
 706 147 l 1
 407 149 86 187 86 529 c 2
 86 969 l 2
 86 1310 425 1341 706 1343 c 1
 706 1578 l 1
 785 1578 l 1
 785 1343 l 1
 1026 1340 1396 1309 1396 992 c 2
 1396 881 l 1
 885 881 l 1
 885 1119 l 1
 785 1119 l 1
 785 373 l 1
 885 373 l 1
 885 633 l 1
 1396 633 l 1
598 1119 m 1
 598 373 l 1
 706 373 l 1
 706 1119 l 1
 598 1119 l 1
EndSplineSet
Validated: 1
EndChar

StartChar: sterling
Encoding: 163 163 98
Width: 1598
Flags: HMW
HStem: 0 21G<74 301 74 118 1034 1161> 0 268<819 1161> 718 222<819 1246 819 1246> 1364 268<819 926 819 819>
VStem: 74 1454<0 385 265 385>
LayerCount: 2
Fore
SplineSet
74 265 m 1xb8
 76 266 l 1xb8
 147 275 234 297 234 376 c 2
 234 719 l 1
 76 719 l 1
 76 941 l 1
 234 941 l 1
 234 1065 l 2
 234 1260 248 1417 346 1511 c 0
 458 1618 664 1632 893 1632 c 0
 1069 1632 1210 1616 1322 1568 c 0
 1423 1524 1494 1456 1504 1331 c 0
 1506 1302 1507 1274 1507 1247 c 2
 1507 1070 l 1
 926 1070 l 1
 926 1364 l 1
 819 1364 l 1
 819 940 l 1
 1246 940 l 1
 1246 718 l 1
 819 718 l 1
 819 268 l 1
 947 268 l 1x78
 947 562 l 1
 1528 562 l 1
 1528 385 l 2
 1528 228 1498 126 1399 65 c 0
 1325 19 1225 0 1097 0 c 0
 971 0 877 29 819 91 c 0
 805 106 792 119 781 130 c 1
 725 71 676 33 579 16 c 0
 497 2 407 1 301 0 c 0
 238 0 162 0 74 0 c 1
 74 265 l 1xb8
EndSplineSet
Validated: 1
EndChar

StartChar: yen
Encoding: 165 165 99
Width: 1571
Flags: HMW
HStem: 0 442<477 1082 477 477> 299 143<127 1425 127 1425> 585 143<127 1425 127 1425> 1575 20G<32 592 592 592 968 1524 1524 1524>
VStem: 32 1492<1595 1595>
LayerCount: 2
Fore
SplineSet
1425 728 m 1x78
 1425 585 l 1
 127 585 l 1
 127 728 l 1
 1425 728 l 1x78
1425 442 m 1
 1425 299 l 1
 127 299 l 1
 127 442 l 1
 1425 442 l 1
746 1021 m 1
 763 815 l 1
 792 815 l 1
 809 1021 l 1
 968 1595 l 1
 1524 1595 l 1
 1082 449 l 1
 1082 0 l 1
 477 0 l 1xb8
 477 459 l 1
 32 1595 l 1
 592 1595 l 1
 746 1021 l 1
EndSplineSet
Validated: 5
EndChar

StartChar: section
Encoding: 167 167 100
Width: 1362
Flags: HMW
HStem: -40 275<637 710 637 833> 487 261<343 717 648 710> 1497 273<657 730 657 657>
VStem: 73 1221<669 1080.5>
LayerCount: 2
Fore
SplineSet
265 1046 m 1
 165 1093 88 1179 88 1329 c 0
 88 1727 364 1770 702 1770 c 0
 964 1770 1283 1749 1283 1411 c 0
 1283 1376 1282 1342 1282 1306 c 1
 730 1306 l 1
 730 1497 l 1
 657 1497 l 1
 657 1248 l 1
 675 1230 736 1233 776 1231 c 0
 965 1223 1294 1212 1294 949 c 0
 1294 820 1228 745 1142 705 c 0
 1123 696 1100 685 1083 685 c 1
 1099 677 1118 672 1137 660 c 0
 1217 612 1278 532 1278 401 c 0
 1278 3 1002 -40 664 -40 c 0
 401 -40 85 -18 85 321 c 0
 85 356 86 390 86 426 c 1
 637 426 l 1
 637 235 l 1
 710 235 l 1
 710 487 l 1
 455 487 l 2
 231 487 73 555 73 783 c 0
 73 919 150 1003 248 1039 c 0
 258 1043 264 1045 265 1046 c 1
717 748 m 1
 717 971 l 1
 648 971 l 1
 648 748 l 1
 717 748 l 1
EndSplineSet
Validated: 1
EndChar

StartChar: currency
Encoding: 164 164 101
Width: 1390
Flags: HMW
HStem: 299 271<698 749 637 765.5> 1070 273<637 749 637 637>
VStem: 68 1257<704.5 904>
LayerCount: 2
Fore
SplineSet
698 299 m 0
 560 300 449 315 354 349 c 1
 206 189 l 1
 126 273 l 1
 244 401 l 1
 117 483 68 602 68 804 c 0
 68 1004 101 1142 219 1229 c 1
 127 1330 l 1
 207 1414 l 1
 325 1286 l 1
 427 1326 546 1343 697 1343 c 0
 846 1343 963 1326 1065 1287 c 1
 1181 1414 l 1
 1262 1330 l 1
 1171 1231 l 1
 1293 1143 1325 1016 1325 804 c 0
 1325 605 1271 479 1145 398 c 1
 1263 272 l 1
 1182 188 l 1
 1036 346 l 1
 939 314 833 299 698 299 c 0
637 570 m 1
 749 570 l 1
 749 1070 l 1
 637 1070 l 1
 637 570 l 1
EndSplineSet
Validated: 1
EndChar

StartChar: quotesingle
Encoding: 39 39 102
Width: 629
Flags: HMW
HStem: 1609 20G<286 381.5>
VStem: 147 381<1401.5 1510 1398 1513>
LayerCount: 2
Fore
SplineSet
280 896 m 1
 235 1090 147 1349 147 1454 c 0
 147 1572 239 1629 333 1629 c 0
 430 1629 528 1568 528 1452 c 0
 528 1344 435 1086 390 896 c 0
 381 857 357 837 335 837 c 0
 313 837 291 856 280 896 c 1
EndSplineSet
Validated: 1
EndChar

StartChar: quotedblleft
Encoding: 8220 8220 103
Width: 1339
Flags: HMW
HStem: 1518 112<490.5 645> 1607 20G<645 645 1148 1148>
VStem: 254 917<1162.5 1251.5 1120.5 1319>
LayerCount: 2
Fore
SplineSet
1171 1187 m 0xa0
 1171 1054 1069 987 967 987 c 0
 823 987 757 1098 757 1227 c 0
 757 1411 883 1630 1104 1630 c 0xa0
 1118 1630 1133 1629 1148 1627 c 1x60
 1148 1518 l 1
 1068 1517 998 1473 992 1396 c 1
 1085 1386 1171 1316 1171 1187 c 0xa0
668 1187 m 0
 668 1054 566 987 464 987 c 0
 320 987 254 1098 254 1227 c 0
 254 1411 380 1630 601 1630 c 0xa0
 615 1630 630 1629 645 1627 c 1x60
 645 1518 l 1
 565 1517 495 1473 489 1396 c 1
 582 1386 668 1316 668 1187 c 0
EndSplineSet
Validated: 1
EndChar

StartChar: guillemotleft
Encoding: 171 171 104
Width: 1806
Flags: HMW
HStem: 190 1174<766.5 797 1503 1533>
VStem: 94 1498<740.5 1302>
LayerCount: 2
Fore
SplineSet
711 213 m 2
 184 593 l 2
 124 636 94 706 94 775 c 0
 95 846 126 919 184 961 c 2
 711 1341 l 2
 735 1358 757 1364 776 1364 c 0
 822 1364 857 1326 857 1278 c 0
 857 1256 850 1233 832 1209 c 2
 498 777 l 1
 832 345 l 2
 849 323 855 300 855 277 c 0
 855 230 820 190 774 190 c 0
 755 190 732 197 711 213 c 2
1446 213 m 2
 920 593 l 2
 860 636 830 706 830 775 c 0
 831 846 862 919 920 961 c 2
 1446 1341 l 2
 1470 1358 1494 1364 1512 1364 c 0
 1558 1364 1592 1326 1592 1278 c 0
 1592 1256 1586 1233 1568 1209 c 2
 1234 777 l 1
 1568 345 l 2
 1585 323 1590 300 1590 277 c 0
 1590 230 1556 190 1510 190 c 0
 1491 190 1469 196 1446 213 c 2
EndSplineSet
Validated: 1
EndChar

StartChar: guilsinglleft
Encoding: 8249 8249 105
Width: 1036
Flags: HMW
HStem: 190 1174<817 847>
VStem: 144 762<740.5 1302>
LayerCount: 2
Fore
SplineSet
760 213 m 2
 234 593 l 2
 174 636 144 706 144 775 c 0
 145 846 176 919 234 961 c 2
 760 1341 l 2
 784 1358 808 1364 826 1364 c 0
 872 1364 906 1326 906 1278 c 0
 906 1256 900 1233 882 1209 c 2
 548 777 l 1
 882 345 l 2
 899 323 904 300 904 277 c 0
 904 230 870 190 824 190 c 0
 805 190 783 196 760 213 c 2
EndSplineSet
Validated: 1
EndChar

StartChar: guilsinglright
Encoding: 8250 8250 106
Width: 1034
Flags: HMW
HStem: 190 1174<203 233 201 235.5>
VStem: 144 762<740.5 1302>
LayerCount: 2
Fore
SplineSet
816 593 m 2
 290 213 l 2
 267 196 245 190 226 190 c 0
 180 190 146 230 146 277 c 0
 146 300 151 323 168 345 c 2
 502 777 l 1
 168 1209 l 2
 150 1233 144 1256 144 1278 c 0
 144 1326 178 1364 224 1364 c 0
 242 1364 266 1358 290 1341 c 2
 816 961 l 2
 874 919 905 846 906 775 c 0
 906 706 876 636 816 593 c 2
EndSplineSet
Validated: 1
EndChar

StartChar: endash
Encoding: 8211 8211 107
Width: 1005
Flags: HMW
HStem: 461 436<87 920 87 920>
VStem: 87 833<461 897 461 897>
LayerCount: 2
Fore
SplineSet
920 897 m 1
 920 461 l 1
 87 461 l 1
 87 897 l 1
 920 897 l 1
EndSplineSet
Validated: 1
EndChar

StartChar: dagger
Encoding: 8224 8224 108
Width: 1061
Flags: HMW
HStem: 915 284<113 193 862 946.5> 1607 20G<476.5 570>
VStem: 34 991<1022 1091.5>
LayerCount: 2
Fore
SplineSet
713 1458 m 0
 713 1357 646 1225 584 1103 c 1
 690 1143 815 1199 908 1199 c 0
 986 1199 1025 1128 1025 1058 c 0
 1025 986 986 915 907 915 c 0
 817 915 695 968 592 1007 c 1
 659 649 712 368 712 222 c 0
 712 79 617 5 523 5 c 0
 432 5 341 76 341 220 c 0
 341 369 394 666 455 1002 c 1
 339 957 233 915 153 915 c 0
 73 915 34 985 34 1056 c 0
 34 1127 74 1199 152 1199 c 0
 234 1199 342 1156 460 1110 c 1
 399 1230 338 1358 338 1457 c 0
 338 1571 430 1627 523 1627 c 0
 617 1627 713 1569 713 1458 c 0
EndSplineSet
Validated: 1
EndChar

StartChar: daggerdbl
Encoding: 8225 8225 109
Width: 1061
Flags: HMW
HStem: 389 284<113 193 862 946.5> 915 284<113 193 862 946.5> 1607 20G<476.5 570>
VStem: 455 137<586 1002 1002 1002>
LayerCount: 2
Fore
SplineSet
455 586 m 1
 455 1002 l 1
 339 957 233 915 153 915 c 0
 73 915 34 985 34 1056 c 0
 34 1127 74 1199 152 1199 c 0
 234 1199 342 1156 460 1110 c 1
 399 1230 338 1358 338 1457 c 0
 338 1571 430 1627 523 1627 c 0
 617 1627 713 1569 713 1458 c 0
 713 1357 646 1225 584 1103 c 1
 690 1143 815 1199 908 1199 c 0
 986 1199 1025 1128 1025 1058 c 0
 1025 986 986 915 907 915 c 0
 817 915 695 968 592 1007 c 1
 592 581 l 1
 695 620 817 673 907 673 c 0
 986 673 1025 602 1025 530 c 0
 1025 460 986 389 908 389 c 0
 815 389 690 445 584 485 c 1
 646 363 713 231 713 130 c 0
 713 19 617 -39 523 -39 c 0
 430 -39 338 17 338 131 c 0
 338 230 399 358 460 478 c 1
 342 432 234 389 152 389 c 0
 74 389 34 461 34 532 c 0
 34 603 73 673 153 673 c 0
 233 673 339 631 455 586 c 1
EndSplineSet
Validated: 1
EndChar

StartChar: paragraph
Encoding: 182 182 110
Width: 1318
Flags: HMW
HStem: 0 21G<591 853 591 591 962 1223 962 962> 1575 20G<689 1223 1223 1223>
VStem: 591 262<0 658 0 659 0 659> 962 261<0 658 658 658>
LayerCount: 2
Fore
SplineSet
591 659 m 1
 258 659 56 782 56 1107 c 0
 56 1516 342 1595 689 1595 c 2
 1223 1595 l 1
 1223 0 l 1
 962 0 l 1
 962 658 l 1
 853 658 l 1
 853 0 l 1
 591 0 l 1
 591 659 l 1
EndSplineSet
Validated: 1
EndChar

StartChar: bullet
Encoding: 8226 8226 111
Width: 1120
Flags: HMW
HStem: 195 1059<396 750 396 762>
VStem: 71 982<566.5 901 566.5 914>
LayerCount: 2
Fore
SplineSet
1053 726 m 0
 1053 407 947 195 577 195 c 0
 181 195 71 381 71 726 c 0
 71 1102 213 1254 579 1254 c 0
 921 1254 1053 1076 1053 726 c 0
EndSplineSet
Validated: 1
EndChar

StartChar: quotesinglbase
Encoding: 8218 8218 112
Width: 648
Flags: HMW
HStem: -409 21G<297 319>
VStem: 120 381<155.5 264 152 267>
LayerCount: 2
Fore
SplineSet
253 -350 m 1
 208 -156 120 103 120 208 c 0
 120 326 212 383 306 383 c 0
 403 383 501 322 501 206 c 0
 501 98 408 -160 363 -350 c 0
 354 -389 330 -409 308 -409 c 0
 286 -409 264 -390 253 -350 c 1
EndSplineSet
Validated: 1
EndChar

StartChar: quotedblbase
Encoding: 8222 8222 113
Width: 1229
Flags: HMW
HStem: -409 21G<333 355 830 852>
VStem: 156 878<155.5 264 152 267>
LayerCount: 2
Fore
SplineSet
289 -350 m 1
 244 -156 156 103 156 208 c 0
 156 326 248 383 342 383 c 0
 439 383 537 322 537 206 c 0
 537 98 444 -160 399 -350 c 0
 390 -389 366 -409 344 -409 c 0
 322 -409 300 -390 289 -350 c 1
786 -350 m 1
 741 -156 653 103 653 208 c 0
 653 326 745 383 839 383 c 0
 936 383 1034 322 1034 206 c 0
 1034 98 941 -160 896 -350 c 0
 887 -389 863 -409 841 -409 c 0
 819 -409 797 -390 786 -350 c 1
EndSplineSet
Validated: 1
EndChar

StartChar: quotedblright
Encoding: 8221 8221 114
Width: 1327
Flags: HMW
HStem: 987 112<277 431.5> 1610 20G<407 530 910 1033>
VStem: 254 917<1365.5 1454.5 1298 1496.5>
LayerCount: 2
Fore
SplineSet
254 1430 m 0
 254 1563 356 1630 458 1630 c 0
 602 1630 668 1519 668 1390 c 0
 668 1206 542 987 321 987 c 0
 307 987 292 988 277 990 c 1
 277 1099 l 1
 357 1100 427 1144 433 1221 c 1
 340 1231 254 1301 254 1430 c 0
757 1430 m 0
 757 1563 859 1630 961 1630 c 0
 1105 1630 1171 1519 1171 1390 c 0
 1171 1206 1045 987 824 987 c 0
 810 987 795 988 780 990 c 1
 780 1099 l 1
 860 1100 930 1144 936 1221 c 1
 843 1231 757 1301 757 1430 c 0
EndSplineSet
Validated: 1
EndChar

StartChar: guillemotright
Encoding: 187 187 115
Width: 1770
Flags: HMW
HStem: 190 1174<203 233 201 235.5 939 969.5 201 971.5>
VStem: 144 1498<740.5 1302>
LayerCount: 2
Fore
SplineSet
1552 593 m 2
 1025 213 l 2
 1004 197 981 190 962 190 c 0
 916 190 881 230 881 277 c 0
 881 300 887 323 904 345 c 2
 1238 777 l 1
 904 1209 l 2
 886 1233 879 1256 879 1278 c 0
 879 1326 914 1364 960 1364 c 0
 979 1364 1001 1358 1025 1341 c 2
 1552 961 l 2
 1610 919 1641 846 1642 775 c 0
 1642 706 1612 636 1552 593 c 2
816 593 m 2
 290 213 l 2
 267 196 245 190 226 190 c 0
 180 190 146 230 146 277 c 0
 146 300 151 323 168 345 c 2
 502 777 l 1
 168 1209 l 2
 150 1233 144 1256 144 1278 c 0
 144 1326 178 1364 224 1364 c 0
 242 1364 266 1358 290 1341 c 2
 816 961 l 2
 874 919 905 846 906 775 c 0
 906 706 876 636 816 593 c 2
EndSplineSet
Validated: 1
EndChar

StartChar: ellipsis
Encoding: 8230 8230 116
Width: 2010
Flags: HMW
HStem: -39 420<289 391 959 1061 1629 1731>
VStem: 136 1748<101 241>
LayerCount: 2
Fore
SplineSet
136 171 m 0
 136 311 238 381 340 381 c 0
 442 381 544 311 544 171 c 0
 544 31 442 -39 340 -39 c 0
 238 -39 136 31 136 171 c 0
806 171 m 0
 806 311 908 381 1010 381 c 0
 1112 381 1214 311 1214 171 c 0
 1214 31 1112 -39 1010 -39 c 0
 908 -39 806 31 806 171 c 0
1476 171 m 0
 1476 311 1578 381 1680 381 c 0
 1782 381 1884 311 1884 171 c 0
 1884 31 1782 -39 1680 -39 c 0
 1578 -39 1476 31 1476 171 c 0
EndSplineSet
Validated: 1
EndChar

StartChar: grave
Encoding: 96 96 118
Width: 873
Flags: HMW
HStem: 1371 559<163.5 802.5>
VStem: 41 807<1405.5 1799>
LayerCount: 2
Fore
SplineSet
814 1480 m 0
 838 1459 848 1438 848 1420 c 0
 848 1391 820 1371 785 1371 c 0
 775 1371 764 1372 753 1376 c 0
 548 1438 261 1510 157 1570 c 0
 76 1617 41 1687 41 1752 c 0
 41 1846 112 1930 215 1930 c 0
 253 1930 295 1919 340 1893 c 0
 441 1835 651 1629 814 1480 c 0
EndSplineSet
Validated: 1
EndChar

StartChar: acute
Encoding: 180 180 119
Width: 873
Flags: HMW
HStem: 1371 559<70.5 709.5>
VStem: 25 807<1405.5 1799>
LayerCount: 2
Fore
SplineSet
59 1480 m 4
 222 1629 432 1835 533 1893 c 4
 578 1919 620 1930 658 1930 c 4
 761 1930 832 1846 832 1752 c 4
 832 1687 797 1617 716 1570 c 4
 612 1510 325 1438 120 1376 c 4
 109 1372 98 1371 88 1371 c 4
 53 1371 25 1391 25 1420 c 4
 25 1438 35 1459 59 1480 c 4
EndSplineSet
Validated: 1
EndChar

StartChar: circumflex
Encoding: 710 710 120
Width: 954
Flags: HMW
HStem: 1411 597<450.5 854.5>
VStem: 54 846<1456.5 1482 1455.5 1482.5>
LayerCount: 2
Fore
SplineSet
72 1527 m 2
 335 1936 l 2
 366 1984 423 2008 478 2008 c 0
 531 2008 586 1987 619 1936 c 2
 882 1527 l 2
 894 1508 900 1490 900 1474 c 0
 900 1437 872 1411 837 1411 c 0
 819 1411 799 1418 780 1433 c 2
 477 1668 l 1
 174 1433 l 2
 156 1419 137 1413 120 1413 c 0
 84 1413 54 1438 54 1475 c 0
 54 1490 60 1508 72 1527 c 2
EndSplineSet
Validated: 1
EndChar

StartChar: tilde
Encoding: 732 732 121
Width: 1422
Flags: HMW
HStem: 70 383<444 509 444 573.5> 260 386<934 997>
VStem: 79 1280<96 621>
LayerCount: 2
Fore
SplineSet
1063 96 m 1x60
 1066 96 l 1
 1066 178 1038 260 956 260 c 0x60
 912 260 881 233 853 211 c 0
 759 136 661 70 486 70 c 0
 250 70 151 176 106 376 c 1
 88 439 79 521 79 621 c 1
 375 621 l 1
 375 535 401 453 487 453 c 0xa0
 531 453 565 481 595 503 c 0
 691 573 784 646 953 646 c 0
 1313 646 1359 444 1359 96 c 1
 1063 96 l 1x60
EndSplineSet
Validated: 5
EndChar

StartChar: macron
Encoding: 175 175 122
Width: 999
Flags: HMW
HStem: 666 231<87 920 87 920>
VStem: 87 833<666 897 666 897>
LayerCount: 2
Fore
SplineSet
920 897 m 5
 920 666 l 5
 87 666 l 5
 87 897 l 5
 920 897 l 5
EndSplineSet
Validated: 1
EndChar

StartChar: breve
Encoding: 728 728 123
Width: 1062
Flags: HMW
HStem: 1398 303<458.5 615.5 458.5 728>
VStem: 75 297<1825.5 1879 1825.5 1879> 75 924<1737.5 1879> 702 297<1825.5 1879>
LayerCount: 2
Fore
SplineSet
537 1398 m 0xd0
 155 1398 75 1596 75 1879 c 1
 372 1879 l 1
 372 1772 380 1701 537 1701 c 0
 694 1701 702 1772 702 1879 c 1
 999 1879 l 1
 999 1596 919 1398 537 1398 c 0xd0
EndSplineSet
Validated: 1
EndChar

StartChar: dotaccent
Encoding: 729 729 124
Width: 670
Flags: HMW
HStem: 0 467<84 591 84 591>
VStem: 84 507<0 467 0 467>
LayerCount: 2
Fore
SplineSet
591 0 m 1
 84 0 l 1
 84 467 l 1
 591 467 l 1
 591 0 l 1
EndSplineSet
Validated: 1
EndChar

StartChar: dieresis
Encoding: 168 168 125
Width: 1296
Flags: HMW
HStem: 82 336<83 533 83 533 83 766 766 1217>
VStem: 83 1134<82 418 82 418>
LayerCount: 2
Fore
SplineSet
533 418 m 1
 533 82 l 1
 83 82 l 1
 83 418 l 1
 533 418 l 1
1217 418 m 1
 1217 82 l 1
 766 82 l 1
 766 418 l 1
 1217 418 l 1
EndSplineSet
Validated: 1
EndChar

StartChar: ring
Encoding: 730 730 126
Width: 805
Flags: HMW
HStem: 110 199<369 428> 552 200<382 437>
VStem: 72 210<408 465 396 505.5> 524 214<396.5 452.5 355 464.5>
LayerCount: 2
Fore
SplineSet
72 430 m 0
 72 581 165 682 275 727 c 0
 316 744 359 752 405 752 c 0
 558 752 664 664 712 556 c 0
 729 517 738 475 738 430 c 0
 738 280 643 180 534 135 c 0
 494 118 451 110 405 110 c 0
 252 110 146 197 98 305 c 0
 81 344 72 386 72 430 c 0
403 552 m 0
 333 552 282 500 282 430 c 0
 282 362 335 309 403 309 c 0
 470 309 524 363 524 430 c 0
 524 499 471 552 403 552 c 0
EndSplineSet
Validated: 1
EndChar

StartChar: cedilla
Encoding: 184 184 127
Width: 948
Flags: HMW
HStem: -481 110<511 574 511 608> -180 180<384 561 384 574 384 561>
VStem: 284 227<-323 -267 -267 -267> 384 177<-70 0 -70 0 -70 0> 574 217<-371 -323 -323 -228 -391.5 -180 -391.5 -180>
LayerCount: 2
Fore
SplineSet
384 0 m 1xd0
 561 0 l 1xd0
 561 -70 l 1
 701 -70 791 -101 791 -228 c 2
 791 -323 l 2
 791 -460 678 -481 538 -481 c 0
 389 -481 284 -457 284 -323 c 2
 284 -267 l 1xe8
 511 -239 l 1
 511 -371 l 1xd0
 574 -371 l 1
 574 -180 l 1xd8
 384 -180 l 1
 384 0 l 1xd0
EndSplineSet
Validated: 1
EndChar

StartChar: hungarumlaut
Encoding: 733 733 128
Width: 873
Flags: HMW
HStem: 31 848<186.5 494 413 723.5>
VStem: 152 989<72.5 745.5>
LayerCount: 2
Fore
SplineSet
780 1480 m 4
 943 1629 1153 1835 1254 1893 c 4
 1299 1919 1341 1930 1379 1930 c 4
 1482 1930 1553 1846 1553 1752 c 4
 1553 1687 1518 1617 1437 1570 c 4
 1333 1510 1046 1438 841 1376 c 4
 830 1372 819 1371 809 1371 c 4
 774 1371 746 1391 746 1420 c 4
 746 1438 756 1459 780 1480 c 4
89 1480 m 4
 252 1629 462 1835 563 1893 c 4
 608 1919 650 1930 688 1930 c 4
 791 1930 862 1846 862 1752 c 4
 862 1687 827 1617 746 1570 c 4
 642 1510 355 1438 150 1376 c 4
 139 1372 128 1371 118 1371 c 4
 83 1371 55 1391 55 1420 c 4
 55 1438 65 1459 89 1480 c 4
EndSplineSet
Validated: 1
EndChar

StartChar: ogonek
Encoding: 731 731 129
Width: 693
Flags: HMW
HStem: -630 327<477.5 485> 0 21G<506 506>
VStem: 125 531<-399 -274 -589 -243.5>
LayerCount: 2
Fore
SplineSet
435 72 m 1
 506 0 l 1
 437 -47 396 -124 396 -189 c 0
 396 -252 434 -303 521 -303 c 0
 557 -303 602 -294 656 -274 c 1
 656 -589 l 1
 582 -617 515 -630 455 -630 c 0
 248 -630 125 -482 125 -316 c 0
 125 -171 219 -12 435 72 c 1
EndSplineSet
Validated: 1
EndChar

StartChar: caron
Encoding: 711 711 130
Width: 954
Flags: HMW
HStem: 1411 597<450.5 854.5>
VStem: 54 846<1937 1962.5>
LayerCount: 2
Fore
SplineSet
335 1483 m 2
 72 1892 l 2
 60 1911 54 1929 54 1944 c 0
 54 1981 84 2006 120 2006 c 0
 137 2006 156 2000 174 1986 c 2
 477 1751 l 1
 780 1986 l 2
 799 2001 819 2008 837 2008 c 0
 872 2008 900 1982 900 1945 c 0
 900 1929 894 1911 882 1892 c 2
 619 1483 l 2
 586 1432 531 1411 478 1411 c 0
 423 1411 366 1435 335 1483 c 2
EndSplineSet
Validated: 1
EndChar

StartChar: emdash
Encoding: 8212 8212 131
Width: 1857
Flags: HMW
HStem: 461 436<87 1772 87 1772>
VStem: 87 1685<461 897 461 897>
LayerCount: 2
Fore
SplineSet
1772 897 m 1
 1772 461 l 1
 87 461 l 1
 87 897 l 1
 1772 897 l 1
EndSplineSet
Validated: 1
EndChar

StartChar: AE
Encoding: 198 198 132
Width: 2011
Flags: HMW
HStem: 0 244<1605 1946 1605 1946> 348 230<774 987 847 987 847 987> 711 250<1605 1923 1605 1923> 1354 241<1605 1946 1605 1605>
VStem: 987 151<0 348 348 348 578 1001 1001 1001>
LayerCount: 2
Fore
SplineSet
1946 1595 m 1
 1946 1354 l 1
 1605 1354 l 1
 1605 961 l 1
 1923 961 l 1
 1923 711 l 1
 1605 711 l 1
 1605 244 l 1
 1946 244 l 1
 1946 0 l 1
 1628 0 1310 0 992 0 c 6
 987 0 l 1
 987 348 l 1
 774 348 l 1
 663 0 l 1
 38 0 l 1
 673 1595 l 1
 1946 1595 l 1
847 578 m 1
 987 578 l 1
 987 1001 l 1
 847 578 l 1
EndSplineSet
Validated: 1
EndChar

StartChar: ordfeminine
Encoding: 170 170 133
Width: 1471
Flags: HMW
HStem: 263 226<350.5 810> 942 171<389 644 389 810> 1395 221<696 810 671 830>
VStem: 72 1337<290 829.5>
LayerCount: 2
Fore
SplineSet
1380 546 m 1
 1381 547 l 1
 1381 451 1393 364 1409 290 c 1
 889 290 l 1
 833 428 l 1
 772 327 657 263 493 263 c 0
 208 263 72 396 72 677 c 0
 72 982 234 1113 544 1113 c 0
 651 1113 737 1096 810 1072 c 1
 810 1395 l 1
 671 1395 l 1
 671 1204 l 1
 146 1184 l 1
 140 1219 135 1255 135 1294 c 0
 135 1514 315 1576 515 1603 c 0
 578 1612 653 1616 739 1616 c 0
 921 1616 1068 1601 1186 1553 c 0
 1289 1511 1367 1444 1377 1321 c 0
 1379 1293 1380 1266 1380 1241 c 2
 1380 546 l 1
644 942 m 1
 644 489 l 1
 810 489 l 1
 810 942 l 1
 644 942 l 1
EndSplineSet
Validated: 1
EndChar

StartChar: Lslash
Encoding: 321 321 134
Width: 1534
Flags: HMW
HStem: 0 241<981 1322 981 1322> 1575 20G<377 981 981 981>
VStem: 72 1250<0 750 0 750>
LayerCount: 2
Fore
SplineSet
1320 1072 m 1
 72 410 l 1
 72 750 l 1
 1320 1410 l 1
 1320 1072 l 1
377 0 m 1
 377 1595 l 1
 981 1595 l 1
 981 241 l 1
 1322 241 l 1
 1322 0 l 1
 377 0 l 1
EndSplineSet
Validated: 5
EndChar

StartChar: Oslash
Encoding: 216 216 135
Width: 1542
Flags: HMW
HStem: -39 274<778 833> 1362 268<723.5 868 695 874> 1696 20G<1396 1396>
VStem: 90 1382<370 1226 236.5 1358.5>
LayerCount: 2
Fore
SplineSet
1275 1817 m 1
 1396 1716 l 1
 242 -166 l 1
 114 -70 l 1
 1275 1817 l 1
695 235 m 1
 868 235 l 1
 868 1362 l 1
 695 1362 l 1
 695 235 l 1
778 -39 m 1
 779 -41 l 1
 588 -41 432 -22 308 30 c 0
 196 77 112 152 96 283 c 0
 92 314 90 343 90 370 c 2
 90 1226 l 2
 90 1491 263 1572 499 1611 c 0
 576 1624 669 1630 778 1630 c 0
 970 1630 1126 1612 1251 1561 c 0
 1391 1504 1472 1413 1472 1226 c 2
 1472 370 l 2
 1472 103 1295 20 1058 -20 c 0
 981 -33 888 -39 778 -39 c 1
EndSplineSet
Validated: 5
EndChar

StartChar: OE
Encoding: 338 338 136
Width: 1832
Flags: HMW
HStem: 0 232<722 722 722 792 678 1768> 0 244<1424 1768 1424 1768> 711 250<1424 1744 1424 1744> 1354 241<1424 1768 1424 1424> 1363 232<722 792 678 1768>
VStem: 92 1676<0 1227 0 1314>
LayerCount: 2
Fore
SplineSet
722 0 m 1x74
 722 -1 l 1
 541 -1 396 13 279 60 c 0
 177 101 104 164 95 287 c 0
 93 316 92 344 92 371 c 2
 92 1227 l 2
 92 1401 149 1483 279 1534 c 0
 396 1580 543 1595 722 1595 c 2
 1768 1595 l 1
 1768 1354 l 1
 1424 1354 l 1
 1424 961 l 1
 1744 961 l 1
 1744 711 l 1
 1424 711 l 1
 1424 244 l 1
 1768 244 l 1
 1768 0 l 1
 722 0 l 1x74
678 232 m 1xac
 792 232 l 1
 792 1363 l 1
 678 1363 l 1
 678 232 l 1xac
EndSplineSet
Validated: 1
EndChar

StartChar: ordmasculine
Encoding: 186 186 137
Width: 1334
VWidth: 1768
Flags: HMW
HStem: 99 218<674.7 744.3> 1014 190<674.7 807.5 674.7 674.7>
VStem: 218 1047<412.8 892 260.8 892.8 260.8 1038.8>
LayerCount: 2
Fore
SplineSet
744 99 m 1
 490 99 218 115 218 413 c 2
 218 893 l 2
 218 1185 507 1204 745 1204 c 0
 996 1204 1265 1180 1265 892 c 2
 1265 412 l 2
 1265 110 990 102 744 99 c 1
675 317 m 1
 808 317 l 1
 808 1014 l 1
 675 1014 l 1
 675 317 l 1
EndSplineSet
Validated: 1
EndChar

StartChar: ae
Encoding: 230 230 138
Width: 2144
Flags: HMW
HStem: -36 288<637 682.5 1359 1476.5> 604 220<383.5 637 383.5 787> 606 195<1359 1503 1359 2075 1359 1503> 1055 290<1359 1503 1359 1359>
VStem: 69 2006<325.5 956>
LayerCount: 2
Fore
SplineSet
1074 1261 m 1xb8
 1072 1263 l 1
 1159 1320 1282 1345 1431 1345 c 0
 1613 1345 1760 1328 1877 1279 c 0
 1981 1235 2060 1165 2071 1040 c 0
 2074 1011 2075 983 2075 956 c 2
 2075 606 l 1
 1359 606 l 1xb8
 1359 252 l 1
 1503 252 l 1
 1503 501 l 1
 2074 501 l 1
 2074 354 l 1
 2069 96 1917 16 1682 -20 c 0
 1611 -31 1526 -36 1427 -36 c 0
 1274 -36 1163 11 1079 77 c 1
 948 2 788 -36 577 -36 c 0
 395 -36 261 9 175 97 c 0
 108 166 69 263 69 388 c 0
 69 692 229 824 538 824 c 0
 641 824 718 808 787 783 c 1xd8
 787 1054 l 1
 664 1054 l 1
 664 915 l 1
 488 908 316 901 140 894 c 1
 134 929 129 965 129 1004 c 0
 129 1231 298 1300 503 1329 c 0
 566 1338 640 1343 725 1343 c 0
 871 1343 993 1320 1074 1261 c 1xb8
637 604 m 1xd8
 637 252 l 1
 787 252 l 1
 787 604 l 1
 637 604 l 1xd8
1359 801 m 1xb8
 1503 801 l 1
 1503 1055 l 1
 1359 1055 l 1
 1359 801 l 1xb8
EndSplineSet
Validated: 1
EndChar

StartChar: dotlessi
Encoding: 305 305 139
Width: 744
Flags: HMW
HStem: 0 21G<100 669 100 100>
VStem: 100 569<0 1298>
LayerCount: 2
Fore
SplineSet
669 0 m 1
 100 0 l 1
 100 1298 l 1
 669 1298 l 1
 669 0 l 1
EndSplineSet
Validated: 1
EndChar

StartChar: lslash
Encoding: 322 322 140
Width: 1145
Flags: HMW
HStem: 0 21G<281 852 281 281> 1690 20G<281 852 852 852>
VStem: 64 1030<539 1023 788 1023>
LayerCount: 2
Fore
SplineSet
1094 1023 m 1
 64 539 l 1
 64 788 l 1
 1094 1271 l 1
 1094 1023 l 1
852 0 m 1
 281 0 l 1
 281 1710 l 1
 852 1710 l 1
 852 0 l 1
EndSplineSet
Validated: 5
EndChar

StartChar: oslash
Encoding: 248 248 141
Width: 1465
Flags: HMW
HStem: -39 273<657 823 657 836> 1106 237<691.5 745 691.5 823 657 745>
VStem: 56 1350<19 1286>
LayerCount: 2
Fore
SplineSet
114 -39 m 1
 56 19 l 1
 153 118 l 1
 103 175 86 249 86 352 c 2
 86 952 l 2
 86 1212 241 1288 473 1325 c 0
 547 1337 638 1343 745 1343 c 1
 744 1344 l 1
 957 1344 1128 1324 1255 1249 c 1
 1348 1344 l 1
 1406 1286 l 1
 1320 1198 l 1
 1376 1141 1395 1063 1395 952 c 2
 1395 352 l 2
 1395 172 1330 82 1197 27 c 0
 1078 -22 928 -39 744 -39 c 0
 522 -39 343 -18 215 65 c 1
 114 -39 l 1
657 234 m 1
 823 234 l 1
 823 689 l 1
 657 519 l 1
 657 234 l 1
657 636 m 1
 823 806 l 1
 823 1106 l 1
 657 1106 l 1
 657 636 l 1
EndSplineSet
Validated: 1
EndChar

StartChar: oe
Encoding: 339 339 142
Width: 2136
Flags: HMW
HStem: -28 277<1390 1502 1351 1538> 620 205<1351 1501 1350 2065 1351 1351> 1051 279<649 765.5 620 799 649 649 1366.5 1501>
VStem: 85 1984<367 368 368 554 278 930 931 944.5 278 1021>
LayerCount: 2
Fore
SplineSet
1075 96 m 1
 1074 94 l 1
 1011 2 874 -30 711 -30 c 0
 530 -30 384 -13 269 37 c 0
 167 82 95 154 88 282 c 0
 86 312 85 340 85 367 c 2
 85 930 l 2
 85 1112 138 1203 268 1262 c 0
 382 1313 530 1330 710 1330 c 0
 821 1330 910 1316 980 1285 c 0
 1022 1266 1057 1243 1074 1211 c 1
 1134 1304 1286 1330 1447 1330 c 0
 1629 1330 1774 1313 1888 1262 c 0
 1989 1217 2061 1145 2067 1016 c 0
 2068 986 2069 958 2069 931 c 2
 2065 620 l 1
 1351 620 l 1
 1351 249 l 1
 1502 249 l 1
 1502 554 l 1
 2069 554 l 1
 2069 368 l 2
 2069 188 2019 96 1889 39 c 0
 1775 -11 1628 -28 1448 -28 c 0
 1332 -28 1238 -17 1166 16 c 0
 1122 36 1091 60 1075 96 c 1
649 248 m 1
 799 248 l 1
 799 1051 l 1
 649 1051 l 1
 649 248 l 1
1350 825 m 1
 1501 825 l 1
 1501 1051 l 1
 1350 1051 l 1
 1350 825 l 1
EndSplineSet
Validated: 1
EndChar

StartChar: germandbls
Encoding: 223 223 143
Width: 1389
Flags: HMW
HStem: -37 231<692 776 692 831> 750 231<719 831 719 831> 1358 237<665.5 831 595 845>
VStem: 99 1228<154 258 258 553 154 1217 154 1340.5>
LayerCount: 2
Fore
SplineSet
595 -205 m 1
 99 -205 l 1
 99 1217 l 2
 99 1464 244 1542 463 1578 c 0
 532 1589 616 1595 715 1595 c 0
 975 1595 1172 1538 1236 1350 c 0
 1254 1297 1258 1235 1258 1170 c 0
 1258 1035 1207 957 1122 909 c 0
 1082 887 1037 874 986 870 c 1
 1129 862 1236 803 1293 703 c 0
 1316 663 1327 613 1327 553 c 2
 1327 258 l 2
 1327 50 1186 0 996 -25 c 0
 935 -33 862 -37 776 -37 c 2
 692 -37 l 1
 692 194 l 1
 831 194 l 1
 831 750 l 1
 719 750 l 1
 719 981 l 1
 831 981 l 1
 831 1358 l 1
 595 1358 l 1
 595 -205 l 1
EndSplineSet
Validated: 1
EndChar

StartChar: onesuperior
Encoding: 185 185 144
Width: 731
VWidth: 1768
Flags: HMW
HStem: 130 17G<259.4 654.6 259.4 259.4> 971 144<115.4 160.2 115.4 259.4 115.4 160.2> 971 199<115.4 654.6>
VStem: 115 539<970.8 1114.8 1114.8 1114.8>
LayerCount: 2
Fore
SplineSet
115 1115 m 1xd0
 205 1115 285 1135 342 1170 c 1
 654 1170 l 1
 654 130 l 1
 259 130 l 1
 259 971 l 1
 115 971 l 1xb0
 115 1115 l 1xd0
EndSplineSet
Validated: 1
EndChar

StartChar: logicalnot
Encoding: 172 172 145
Width: 1269
Flags: HMW
HStem: 791 314<83 950 83 1179>
VStem: 950 229<300 791 791 791>
LayerCount: 2
Fore
SplineSet
1179 300 m 1
 950 300 l 1
 950 791 l 1
 83 791 l 1
 83 1105 l 1
 1179 1105 l 1
 1179 300 l 1
EndSplineSet
Validated: 1
EndChar

StartChar: trademark
Encoding: 8482 8482 147
Width: 1884
Flags: HMW
HStem: 1453 142<47 209 47 745 582 745 582 582>
VStem: 47 1744<1453 1595 657 1595>
LayerCount: 2
Fore
SplineSet
745 1595 m 1
 745 1453 l 1
 582 1453 l 1
 582 657 l 1
 209 657 l 1
 209 1453 l 1
 47 1453 l 1
 47 1595 l 1
 745 1595 l 1
1238 657 m 1
 1160 951 l 1
 1160 657 l 1
 789 657 l 1
 789 1595 l 1
 1223 1595 l 1
 1291 1158 l 1
 1351 1595 l 1
 1791 1595 l 1
 1791 657 l 1
 1421 657 l 1
 1421 951 l 1
 1342 657 l 1
 1238 657 l 1
EndSplineSet
Validated: 1
EndChar

StartChar: Eth
Encoding: 208 208 148
Width: 1449
Flags: HMW
HStem: 0 237<645 817> 726 142<52 773 52 773> 1358 237<645 817 817 881 645 645>
VStem: 52 1326<726 868 868 868>
LayerCount: 2
Fore
SplineSet
773 868 m 1
 773 726 l 1
 52 726 l 1
 52 868 l 1
 773 868 l 1
645 237 m 1
 881 237 l 1
 881 1358 l 1
 645 1358 l 1
 645 237 l 1
1378 393 m 1
 1376 392 l 1
 1376 218 1331 125 1210 66 c 0
 1110 17 980 0 817 0 c 2
 146 0 l 1
 146 1595 l 1
 817 1595 l 2
 980 1595 1110 1578 1211 1529 c 0
 1305 1484 1368 1412 1375 1289 c 0
 1377 1259 1378 1231 1378 1204 c 2
 1378 393 l 1
EndSplineSet
Validated: 5
EndChar

StartChar: plusminus
Encoding: 177 177 150
Width: 1304
Flags: HMW
HStem: -1 301<230 1064 230 1064> 881 333<92 457 92 457 849 1213> 1575 20G<457 849 849 849>
VStem: 92 1121<881 1214 881 1214>
LayerCount: 2
Fore
SplineSet
457 1214 m 1
 457 1595 l 1
 849 1595 l 1
 849 1214 l 1
 1213 1214 l 1
 1213 881 l 1
 849 881 l 1
 849 503 l 1
 457 503 l 1
 457 881 l 1
 92 881 l 1
 92 1214 l 1
 457 1214 l 1
1064 300 m 1
 1064 -1 l 1
 230 -1 l 1
 230 300 l 1
 1064 300 l 1
EndSplineSet
Validated: 1
EndChar

StartChar: Thorn
Encoding: 222 222 151
Width: 1534
Flags: HMW
HStem: 0 21G<104 706 104 104> 250 232<706 843 706 869> 1182 231<706 843 843 869 706 843> 1579 20G<104 706 706 706>
VStem: 104 1365<608.5 641 641 1022 608.5 1599 608.5 1599>
LayerCount: 2
Fore
SplineSet
104 1599 m 1
 706 1599 l 1
 706 1413 l 1
 843 1413 l 2
 1023 1413 1169 1397 1284 1347 c 0
 1385 1303 1459 1233 1466 1107 c 0
 1468 1077 1469 1049 1469 1022 c 2
 1469 641 l 2
 1469 576 1467 519 1447 469 c 0
 1396 345 1268 295 1108 268 c 0
 1036 256 948 250 843 250 c 2
 706 250 l 1
 706 0 l 1
 104 0 l 1
 104 1599 l 1
706 482 m 1
 869 482 l 1
 869 1182 l 1
 706 1182 l 1
 706 482 l 1
EndSplineSet
Validated: 1
EndChar

StartChar: divide
Encoding: 247 247 153
Width: 1286
Flags: HMW
HStem: 92 467<394 901 394 901> 670 238<67 1229 67 1229> 1000 497<394 901 394 901>
VStem: 67 1162<670 908 670 908>
LayerCount: 2
Fore
SplineSet
901 92 m 1
 394 92 l 1
 394 559 l 1
 901 559 l 1
 901 92 l 1
901 1000 m 1
 394 1000 l 1
 394 1497 l 1
 901 1497 l 1
 901 1000 l 1
1229 908 m 1
 1229 670 l 1
 67 670 l 1
 67 908 l 1
 1229 908 l 1
EndSplineSet
Validated: 1
EndChar

StartChar: brokenbar
Encoding: 166 166 154
Width: 831
Flags: HMW
HStem: -255 1963<131 702 131 702>
VStem: 131 571<-255 656 -255 656 797 1708>
LayerCount: 2
Fore
SplineSet
702 656 m 1
 702 -255 l 1
 131 -255 l 1
 131 656 l 1
 702 656 l 1
702 1708 m 1
 702 797 l 1
 131 797 l 1
 131 1708 l 1
 702 1708 l 1
EndSplineSet
Validated: 1
EndChar

StartChar: degree
Encoding: 176 176 155
Width: 812
Flags: HMW
HStem: 1070 152<362.5 445.5 362.5 508> 1520 152<362.5 445.5>
VStem: 73 190<1327 1415 1327 1447.5> 545 190<1327 1415>
LayerCount: 2
Fore
SplineSet
73 1371 m 0
 73 1524 196 1672 404 1672 c 0
 612 1672 735 1524 735 1371 c 0
 735 1218 612 1070 404 1070 c 0
 196 1070 73 1218 73 1371 c 0
545 1371 m 0
 545 1459 487 1520 404 1520 c 0
 321 1520 263 1459 263 1371 c 0
 263 1283 321 1222 404 1222 c 0
 487 1222 545 1283 545 1371 c 0
EndSplineSet
Validated: 1
EndChar

StartChar: thorn
Encoding: 254 254 156
Width: 1430
Flags: HMW
HStem: -409 21G<104 675 104 104> -24 21G<893 1010.5> -24 255<674 1010.5> 1069 254<674 1074 674 1074> 1303 20G<883.5 1074> 1582 20G<104 675 675 675>
VStem: 104 1258<309.5 390 390 908 309.5 1602 309.5 1602>
LayerCount: 2
Fore
SplineSet
675 1225 m 1xce
 674 1225 l 1
 712 1307 819 1323 948 1323 c 0
 1200 1323 1350 1231 1360 995 c 0
 1361 964 1362 935 1362 908 c 2
 1362 390 l 2
 1362 229 1334 116 1239 48 c 0
 1170 -2 1073 -24 948 -24 c 0
 838 -24 746 -13 701 44 c 0
 692 56 683 67 675 78 c 1
 675 -409 l 1
 104 -409 l 1
 104 1602 l 1
 675 1602 l 1
 675 1225 l 1xce
674 231 m 1xb6
 788 231 l 1
 788 1069 l 1
 674 1069 l 1
 674 231 l 1xb6
EndSplineSet
Validated: 5
EndChar

StartChar: twosuperior
Encoding: 178 178 158
Width: 1090
VWidth: 1772
Flags: HMW
HStem: 134 198<552.6 986.2 552.6 986.2> 1030 179<552.6 652.6 552.6 552.6>
VStem: 188 838<871.5 1008.7 754.7 1013.1>
LayerCount: 2
Fore
SplineSet
189 836 m 1
 189 850 188 864 188 878 c 0
 188 1148 367 1209 610 1209 c 0
 872 1209 1026 1142 1026 876 c 0
 1026 634 868 548 703 474 c 0
 633 443 553 404 553 332 c 1
 986 332 l 1
 986 134 l 1
 189 134 l 1
 189 313 l 2
 189 575 323 690 517 768 c 0
 579 793 653 823 653 877 c 2
 653 1030 l 1
 553 1030 l 1
 553 836 l 1
 189 836 l 1
EndSplineSet
Validated: 1
EndChar

StartChar: registered
Encoding: 174 174 159
Width: 1861
Flags: HMW
HStem: -101 169<727.5 1116 727.5 1154.5> 756 159<895 978 895 978> 1274 160<895 978 895 895> 1573 176<726 1103.5>
VStem: 84 239<539 1114> 978 138<279 835 756 835 835 1274> 1541 239<482 539 539 1116>
LayerCount: 2
Fore
SplineSet
932 -101 m 0
 421 -101 84 42 84 539 c 2
 84 1116 l 2
 84 1638 490 1749 932 1749 c 0
 1441 1749 1780 1610 1780 1116 c 2
 1780 539 l 2
 1780 14 1377 -101 932 -101 c 0
323 1114 m 2
 323 535 l 2
 323 169 523 68 932 68 c 0
 1300 68 1541 156 1541 482 c 2
 1541 1165 l 2
 1541 1500 1275 1573 932 1573 c 0
 520 1573 323 1471 323 1114 c 2
1116 835 m 1
 1227 828 l 2
 1311 822 1357 751 1357 643 c 2
 1357 279 l 1
 978 279 l 1
 978 756 l 1
 895 756 l 1
 895 279 l 1
 506 279 l 1
 506 1434 l 1
 1016 1434 l 2
 1171 1434 1361 1423 1361 1164 c 2
 1361 1071 l 2
 1361 945 1308 871 1226 864 c 2
 1116 854 l 1
 1116 835 l 1
895 915 m 1
 978 915 l 1
 978 1274 l 1
 895 1274 l 1
 895 915 l 1
EndSplineSet
Validated: 1
EndChar

StartChar: eth
Encoding: 240 240 160
Width: 1395
Flags: HMW
HStem: -37 275<640 762 640 794> 828 269<640 762 640 640>
VStem: 72 1265<639 643>
LayerCount: 2
Fore
SplineSet
510 1887 m 1
 511 1889 l 1
 648 1832 767 1762 880 1674 c 1
 1088 1817 l 1
 1159 1694 l 1
 991 1578 l 1
 1133 1442 1251 1273 1308 1050 c 0
 1327 975 1337 894 1337 807 c 0
 1337 471 1326 171 1119 45 c 0
 1017 -17 880 -37 708 -37 c 0
 414 -37 191 12 112 221 c 0
 80 306 72 408 72 525 c 0
 72 761 109 933 258 1021 c 0
 349 1075 470 1097 623 1097 c 2
 763 1097 l 1
 763 1171 716 1228 678 1270 c 0
 661 1289 643 1307 624 1324 c 1
 372 1151 l 1
 302 1275 l 1
 507 1416 l 1
 456 1449 403 1483 353 1510 c 2
 286 1546 l 1
 510 1887 l 1
762 828 m 1
 640 828 l 1
 640 238 l 1
 762 238 l 1
 762 828 l 1
EndSplineSet
Validated: 1
EndChar

StartChar: multiply
Encoding: 215 215 161
Width: 1310
Flags: HMW
HStem: 4 1290<401 401 401 917>
VStem: 53 1213<375 375 375 924>
LayerCount: 2
Fore
SplineSet
1266 924 m 1
 1008 649 l 1
 1266 375 l 1
 917 4 l 1
 660 279 l 1
 401 4 l 1
 53 375 l 1
 311 649 l 1
 53 924 l 1
 401 1294 l 1
 660 1020 l 1
 917 1294 l 1
 1266 924 l 1
EndSplineSet
Validated: 1
EndChar

StartChar: threesuperior
Encoding: 179 179 162
Width: 1101
VWidth: 1769
Flags: HMW
HStem: 100 182<548.2 661.8 548.2 755.4> 595 148<490.6 661.8 490.6 661.8> 1027 178<548.2 661.8 548.2 548.2>
VStem: 491 58
LayerCount: 2
Fore
SplineSet
1036 881 m 0
 1036 773 981 705 898 669 c 1
 992 633 1038 547 1038 439 c 0
 1038 193 903 100 607 100 c 0
 311 100 180 221 180 471 c 0
 180 491 181 511 183 532 c 1
 549 532 l 1
 549 282 l 1
 662 282 l 1
 662 595 l 1
 491 595 l 1
 491 743 l 1
 662 743 l 1
 662 1027 l 1
 549 1027 l 1
 549 804 l 1
 183 804 l 1
 181 823 180 841 180 859 c 0
 180 1122 326 1205 606 1205 c 0
 876 1205 1036 1128 1036 881 c 0
EndSplineSet
Validated: 1
EndChar

StartChar: copyright
Encoding: 169 169 163
Width: 1861
Flags: HMW
HStem: -101 169<727.5 1116 727.5 1154.5> 272 160<835 1034 835 1038.5> 1222 159<835 1014.5 801.5 1034 835 835> 1573 176<726 1103.5>
VStem: 84 239<539 1114> 555 280<547 1107 1107 1220.5> 1034 277<432 542 542 749 427 749 913 1111> 1541 239<482 539 539 1116>
LayerCount: 2
Fore
SplineSet
932 -101 m 0
 421 -101 84 42 84 539 c 2
 84 1116 l 2
 84 1638 490 1749 932 1749 c 0
 1441 1749 1780 1610 1780 1116 c 2
 1780 539 l 2
 1780 14 1377 -101 932 -101 c 0
323 1114 m 2
 323 535 l 2
 323 169 523 68 932 68 c 0
 1300 68 1541 156 1541 482 c 2
 1541 1165 l 2
 1541 1500 1275 1573 932 1573 c 0
 520 1573 323 1471 323 1114 c 2
835 432 m 1
 1034 432 l 1
 1034 749 l 1
 1311 749 l 1
 1311 542 l 2
 1311 312 1161 272 916 272 c 0
 701 272 555 315 555 547 c 2
 555 1107 l 2
 555 1334 687 1381 916 1381 c 0
 1113 1381 1311 1366 1311 1111 c 2
 1311 913 l 1
 1034 913 l 1
 1034 1222 l 1
 835 1222 l 1
 835 432 l 1
EndSplineSet
Validated: 1
EndChar

StartChar: foursuperior
Encoding: 8308 8308 222
Width: 1298
VWidth: 1768
Flags: HMW
HStem: 130 17G<767.619 1233.22 767.619 767.619> 322 290<650.819 767.619 650.819 767.619> 1390 16G<393.219 851.619 851.619 851.619>
VStem: 190 1043<322.181 655.781 655.781 655.781>
LayerCount: 2
Fore
SplineSet
1096 130 m 5
 737 130 l 5
 737 291 l 5
 221 291 l 5
 221 571 l 5
 391 1172 l 5
 776 1172 l 5
 607 571 l 5
 607 535 l 5
 737 535 l 5
 737 760 l 5
 1096 760 l 5
 1096 130 l 5
EndSplineSet
Validated: 1
EndChar

StartChar: uni00AD
Encoding: 173 173 224
Width: 1005
Flags: HMW
HStem: 561 336<87 920 87 920>
VStem: 87 833<561 897 561 897>
LayerCount: 2
Fore
SplineSet
920 897 m 1
 920 561 l 1
 87 561 l 1
 87 897 l 1
 920 897 l 1
EndSplineSet
Validated: 1
EndChar

StartChar: Hbar
Encoding: 294 294 249
Width: 1703
Flags: HMW
HStem: 0 21G<151 755 151 151 948 1553 948 948> 688 250<755 948 755 948> 1158 191<54 1659 54 1659> 1158 437<151 755 948 1553 54 755>
VStem: 54 1605<1158 1349 1158 1349>
LayerCount: 2
Fore
SplineSet
1659 1349 m 1xe8
 1659 1158 l 1
 54 1158 l 1xd8
 54 1349 l 1
 1659 1349 l 1xe8
1553 1595 m 1
 1553 0 l 1
 948 0 l 1
 948 688 l 1
 755 688 l 1
 755 0 l 1
 151 0 l 1
 151 1595 l 1
 755 1595 l 1
 755 938 l 1
 948 938 l 1
 948 1595 l 1
 1553 1595 l 1
EndSplineSet
Validated: 5
EndChar

StartChar: hbar
Encoding: 295 295 250
Width: 1511
Flags: HMW
HStem: 0 21G<130 702 130 130 868 1439 868 868> 1065 278<702 1160.5 702 1160.5> 1450 169<43 1188 43 1188> 1450 260<130 702 130 1188 43 702>
VStem: 43 1396<0 1619 0 1619>
LayerCount: 2
Fore
SplineSet
1188 1619 m 1xe8
 1188 1450 l 1
 43 1450 l 1
 43 1619 l 1
 1188 1619 l 1xe8
1023 1343 m 0
 1298 1343 1439 1213 1439 945 c 2
 1439 0 l 1
 868 0 l 1
 868 1065 l 1
 702 1065 l 1
 702 0 l 1
 130 0 l 1
 130 1710 l 1
 702 1710 l 1xd8
 702 1210 l 1
 756 1297 884 1343 1023 1343 c 0
EndSplineSet
Validated: 5
EndChar

StartChar: IJ
Encoding: 306 306 260
Width: 1667
Flags: HMW
HStem: -75 273<916 967.5> 0 198<116 992> 1574 20G<992 1596 1596 1596> 1575 20G<116 720 720 720>
VStem: 116 1480<203.5 334 334 1594 203.5 1595 203.5 1595>
LayerCount: 2
Fore
SplineSet
720 1595 m 1x58
 720 0 l 1
 116 0 l 1
 116 1595 l 1
 720 1595 l 1x58
916 -75 m 1xa8
 916 -76 l 1xa8
 882 -76 851 -75 819 -74 c 1x98
 819 198 l 1
 992 198 l 1x58
 992 1594 l 1
 1596 1594 l 1
 1596 334 l 2
 1596 73 1412 -16 1182 -56 c 0
 1108 -69 1019 -75 916 -75 c 1xa8
EndSplineSet
Validated: 1
EndChar

StartChar: ij
Encoding: 307 307 261
Width: 1646
Flags: HMW
HStem: -326 260<800 1248.5> 0 21G<107 678 107 107> 1280 20G<107 678 678 678 989 1561 1561 1561> 1425 284<107 678 107 678 989 1561>
VStem: 107 1454<0 94 94 1300 -52.5 1300 1425 1709>
LayerCount: 2
Fore
SplineSet
678 0 m 1
 107 0 l 1
 107 1300 l 1
 678 1300 l 1
 678 0 l 1
678 1709 m 1
 678 1425 l 1
 107 1425 l 1
 107 1709 l 1
 678 1709 l 1
1561 94 m 2
 1561 -199 1397 -326 1100 -326 c 0
 991 -326 911 -321 830 -305 c 1
 800 -66 l 1
 989 -66 l 1
 989 1300 l 1
 1561 1300 l 1
 1561 94 l 2
1561 1709 m 1
 1561 1425 l 1
 989 1425 l 1
 989 1709 l 1
 1561 1709 l 1
EndSplineSet
Validated: 1
EndChar

StartChar: kgreenlandic
Encoding: 312 312 266
Width: 1590
Flags: HMW
HStem: 0 21G<100 100 100 684 986 986 986 1561> 1279 20G<100 684 684 684> 1280 20G<952 1538 1538 1538>
VStem: 100 1461<0 1299 0 1299>
LayerCount: 2
Fore
SplineSet
100 0 m 1xb0
 100 1299 l 1
 684 1299 l 1xd0
 684 858 l 1
 952 1300 l 1
 1538 1300 l 1
 1203 790 l 1
 1561 0 l 1
 986 0 l 1
 797 455 l 1
 684 318 l 1
 684 0 l 1
 100 0 l 1xb0
EndSplineSet
Validated: 1
EndChar

StartChar: Ldot
Encoding: 319 319 271
Width: 1094
Flags: HMW
HStem: 0 241<707 1048 707 1048> 950 467<833 1340 833 1340> 1575 20G<103 707 707 707>
VStem: 103 1237<950 950 950 1417 950 1595 950 1595>
LayerCount: 2
Fore
SplineSet
1340 950 m 1
 833 950 l 1
 833 1417 l 1
 1340 1417 l 1
 1340 950 l 1
103 0 m 1
 103 1595 l 1
 707 1595 l 1
 707 241 l 1
 1048 241 l 1
 1048 0 l 1
 103 0 l 1
EndSplineSet
Validated: 1
EndChar

StartChar: ldot
Encoding: 320 320 272
Width: 1313
Flags: HMW
HStem: 0 21G<105 676 105 105> 655 467<806 1313 806 1313> 1690 20G<105 676 676 676>
VStem: 105 1208<655 655 655 1122 655 1710 655 1710>
LayerCount: 2
Fore
SplineSet
1313 655 m 1
 806 655 l 1
 806 1122 l 1
 1313 1122 l 1
 1313 655 l 1
676 0 m 1
 105 0 l 1
 105 1710 l 1
 676 1710 l 1
 676 0 l 1
EndSplineSet
Validated: 1
EndChar

StartChar: Euro
Encoding: 8364 8364 310
Width: 1432
Flags: HMW
HStem: -40 273<695 868 695 938> 561 145<695 1037 695 1037> 843 145<695 1037 695 1037> 1356 276<695 868 695 695>
VStem: 868 169<233 706 451 706>
LayerCount: 2
Fore
SplineSet
0 705 m 1
 90 705 l 1
 90 843 l 1
 0 843 l 1
 0 987 l 1
 90 987 l 1
 90 1226 l 2
 90 1598 483 1632 783 1632 c 0
 1098 1632 1472 1606 1472 1227 c 2
 1472 1139 l 1
 868 1139 l 1
 868 1356 l 1
 695 1356 l 1
 695 988 l 1
 1037 988 l 1
 1037 843 l 1
 695 843 l 1
 695 706 l 1
 1037 706 l 1
 1037 561 l 1
 695 561 l 1
 695 233 l 1
 868 233 l 1
 868 451 l 1
 1472 451 l 1
 1472 369 l 2
 1472 -6 1090 -40 786 -40 c 0
 511 -40 90 -9 90 370 c 2
 90 561 l 1
 0 561 l 1
 0 705 l 1
EndSplineSet
Validated: 1
EndChar

StartChar: gcedilla
Encoding: 291 291 311
Width: 1470
Flags: HMW
HStem: -372 313 91 225<372.5 826> 1104 195<659 1397> 1307 20G<372.5 511>
VStem: 88 1309<482 927 927 1061.5>
LayerCount: 2
Fore
SplineSet
511 1327 m 1
 511 1326 l 1xf8
 667 1326 784 1276 850 1187 c 1
 886 1299 l 1
 1397 1299 l 1xe8
 1397 236 l 2
 1397 -184 1170 -372 678 -372 c 0
 478 -372 324 -345 201 -311 c 1
 258 -20 l 1
 408 -61 738 -82 839 -22 c 1
 839 205 l 1
 777 125 647 91 508 91 c 0
 237 91 88 214 88 482 c 2
 88 927 l 2
 88 1196 234 1327 511 1327 c 1
826 1104 m 1xe8
 659 1104 l 1
 659 316 l 1
 826 316 l 1
 826 1104 l 1xe8
EndSplineSet
Validated: 33
EndChar

StartChar: commaaccent.001
Encoding: 65538 -1 313
Width: 706
Flags: HMW
HStem: -738 112<180 334.5>
VStem: 157 414<-359.5 -270.5 -427 -228.5>
LayerCount: 2
Fore
SplineSet
157 -295 m 0
 157 -162 259 -95 361 -95 c 0
 505 -95 571 -206 571 -335 c 0
 571 -519 445 -738 224 -738 c 0
 210 -738 195 -737 180 -735 c 1
 180 -626 l 1
 260 -625 330 -581 336 -504 c 1
 243 -494 157 -424 157 -295 c 0
EndSplineSet
Validated: 1
EndChar

StartChar: uni0110
Encoding: 272 272 314
Width: 1449
Flags: HMW
HStem: 0 237<645 817> 726 142<52 773 52 773> 1358 237<645 817 817 881 645 645>
VStem: 52 1326<726 868 868 868>
LayerCount: 2
Fore
SplineSet
773 868 m 1
 773 726 l 1
 52 726 l 1
 52 868 l 1
 773 868 l 1
645 237 m 1
 881 237 l 1
 881 1358 l 1
 645 1358 l 1
 645 237 l 1
1378 393 m 1
 1376 392 l 1
 1376 218 1331 125 1210 66 c 0
 1110 17 980 0 817 0 c 2
 146 0 l 1
 146 1595 l 1
 817 1595 l 2
 980 1595 1110 1578 1211 1529 c 0
 1305 1484 1368 1412 1375 1289 c 0
 1377 1259 1378 1231 1378 1204 c 2
 1378 393 l 1
EndSplineSet
Validated: 5
EndChar

StartChar: commaaccent
Encoding: 65539 -1 321
Width: 380
Flags: HMW
HStem: -738 112<6 160.5>
VStem: -17 414<-359.5 -270.5 -427 -228.5>
LayerCount: 2
Fore
SplineSet
-17 -295 m 0
 -17 -162 85 -95 187 -95 c 0
 331 -95 397 -206 397 -335 c 0
 397 -519 271 -738 50 -738 c 0
 36 -738 21 -737 6 -735 c 1
 6 -626 l 1
 86 -625 156 -581 162 -504 c 1
 69 -494 -17 -424 -17 -295 c 0
EndSplineSet
Validated: 1
EndChar

StartChar: y.alt
Encoding: 65540 -1 327
Width: 1342
Flags: HMW
HStem: -400 21G<372 555.5> -400 305<268.5 555.5> 1280 20G<10 563 563 563 781 1333 1333 1333>
VStem: 10 1323<1300 1300>
LayerCount: 2
Fore
SplineSet
628 613 m 1xb0
 645 267 l 1
 694 267 l 1
 711 613 l 1
 781 1300 l 1
 1333 1300 l 1
 933 -26 l 2
 859 -272 704 -400 407 -400 c 0
 337 -400 259 -393 172 -378 c 1
 135 -73 l 1
 199 -88 249 -95 288 -95 c 0
 361 -95 391 -68 391 -14 c 0x70
 391 13 383 48 370 90 c 2
 10 1300 l 1
 563 1300 l 1
 628 613 l 1xb0
EndSplineSet
Validated: 1
EndChar

StartChar: dotlessj
Encoding: 567 567 328
Width: 868
Flags: HMW
HStem: -326 260<23 471.5> 1280 20G<212 784 784 784>
VStem: 23 761<-66 94>
LayerCount: 2
Fore
SplineSet
784 94 m 2
 784 -199 620 -326 323 -326 c 0
 214 -326 134 -321 53 -305 c 1
 23 -66 l 1
 212 -66 l 1
 212 1300 l 1
 784 1300 l 1
 784 94 l 2
EndSplineSet
Validated: 1
EndChar
